<?xml version="1.0" standalone="no"?>
<!DOCTYPE svg PUBLIC "-//W3C//DTD SVG 1.1//EN" "http://www.w3.org/Graphics/SVG/1.1/DTD/svg11.dtd" >
<svg xmlns="http://www.w3.org/2000/svg">
<metadata></metadata>
<defs>
<font id="MichaelFontMedium" horiz-adv-x="614" >
<font-face units-per-em="2048" ascent="1638" descent="-410" />
<missing-glyph horiz-adv-x="860" />
<glyph horiz-adv-x="0" />
<glyph horiz-adv-x="2048" />
<glyph unicode="&#xd;" horiz-adv-x="681" />
<glyph unicode=" "  horiz-adv-x="860" />
<glyph unicode="&#x09;" horiz-adv-x="860" />
<glyph unicode="&#xa0;" horiz-adv-x="860" />
<glyph unicode="!" horiz-adv-x="208" d="M25 -33q-12 29 10 86.5t47 67.5q66 25 86 4t-10 -80q-47 -96 -97 -102q-27 -4 -36 24zM39 468q-2 54 7 219t20.5 255t19.5 113.5t15.5 45t7.5 61.5t26.5 56.5t43.5 -17.5t-4 -106.5t-38.5 -309t-7.5 -325.5t-25 -102q-23 -8 -43 24t-22 86z" />
<glyph unicode="#" horiz-adv-x="827" d="M20 814q0 26 14.5 32t82.5 12l96 6l16 111q18 109 26.5 117t34 -8.5t25.5 -110.5v-94h160l21 127q18 125 24 143q8 18 37 17t44 -19t13 -52t-14 -106t-7 -80t40 -11t43 -10t8 -37t-15.5 -46.5t-36 -22.5t-42 -26.5t-33.5 -64.5t-5 -57t118.5 -9t128.5 -21 q16 -25 -3.5 -48.5t-136.5 -23.5h-116v-176q0 -172 -18.5 -184t-47 3t-33 42t-2.5 143l7 164l-130 2l-26 -82q-27 -74 -29 -96q-3 -33 -17.5 -54t-24 -22.5t-32.5 11.5q-23 12 -27.5 28.5t-0.5 56.5t8 65.5t5 35.5t1 21.5t-7 15.5q-16 9 -59.5 14.5t-64 21t-16.5 38 t21.5 30.5t58.5 13l73 6v133l-80 8q-57 4 -69.5 11t-12.5 33zM281 672.5q4 -31.5 16 -38.5t72.5 -10t73 9t22.5 82l10 69h-84q-57 0 -72.5 -6t-28.5 -40t-9 -65.5z" />
<glyph unicode="$" horiz-adv-x="815" d="M22 270.5q1 14.5 19.5 44t69.5 53t68.5 6t-22.5 -58.5t-30 -57t83 -41t93 -6q43 35 88 301l23 131l-35 27q-100 78 -137 118.5t-45 75.5q-14 80 53 170t186 146q68 35 88.5 57.5t20 61t22.5 73.5q41 57 54 4q6 -33 -5 -98q-4 -16 9.5 -24.5t72 -18.5t80 -27.5t16 -52.5 t-27.5 -48t-36.5 -7t-19.5 20q-13 35 -77 31l-51 -6l-11 -96q-10 -96 -34 -232l-27 -137l70 -59q70 -61 91 -103.5t20 -100t-25.5 -88t-119.5 -105t-110.5 -74.5t-54.5 -46l-37 -45l-39 31q-37 31 -82 31t-110.5 39t-78.5 67.5t-12 43zM271.5 856q9.5 -29 76 -74.5 t78.5 -33.5t40 179t19 173q-20 12 -111 -63.5t-101.5 -113.5t-1 -67zM434 253q6 -9 28 0q53 22 104.5 82t50.5 105.5t-56 98.5t-62 53t-39 -165t-26 -174z" />
<glyph unicode="%" horiz-adv-x="905" d="M20 45q0 29 25 69t123 169l162 213q229 304 420 504q77 79 92.5 79t31.5 -20t5 -42t-59 -66t-149.5 -161.5t-185.5 -224.5l-202 -258q-86 -104 -86 -116.5t-69 -114t-97 -70.5q-10 10 -11 39zM168 786q0 35 24.5 73t98.5 114t107.5 76t44 -24t-7 -53.5t-1.5 -49.5 q33 -39 -19.5 -98.5t-149.5 -86.5t-97 49zM285 842.5q0 -15.5 15 -15.5t15 15.5t-15 15.5t-15 -15.5zM551 119q0 29 60 117t92 103t42.5 13t45.5 -23t45 -37t10 -42q0 -72 -73 -144.5t-144 -72.5q-78 0 -78 86zM651 139q-2 -8 4 -12q16 -10 59.5 31.5t43.5 68.5 q0 53 -51.5 2t-55.5 -90z" />
<glyph unicode="&#x26;" horiz-adv-x="917" d="M24.5 378.5q14.5 114.5 54.5 191.5t106.5 142.5t78.5 86t4 63.5t29 163t77 175t122 107.5t163.5 81t107.5 26.5t71 -51q93 -100 30 -234q-37 -84 -130 -159.5t-273 -171.5q-53 -29 -63.5 -43.5t-6.5 -65.5t46 -143t95.5 -148.5t60.5 -56.5t54 21.5t98.5 63.5t51.5 79 t29.5 35t43.5 -39q25 -70 -98 -152q-82 -53 -88 -63q-14 -20 27 -31q4 -2 8 -2q29 -8 38 -32.5t-11 -49.5q-37 -43 -125 16q-45 31 -71 30t-125 -29t-221 -18.5t-160 51.5t-23.5 156.5zM104 378.5q-8 -106.5 17 -120.5t152.5 -9t170.5 25l58 25l-64 74q-73 82 -128 262 q-17 53 -28.5 57t-58.5 -50t-79 -105.5t-40 -158zM383 865.5q14 -15.5 149.5 68.5t195.5 145t70.5 82t7.5 73t-10.5 63.5t-37.5 13.5q-96 6 -196.5 -69t-126.5 -121t-46 -143t-6 -112.5z" />
<glyph unicode="'" horiz-adv-x="239" d="M20 743q-4 14 47.5 226.5t51.5 230.5q0 49 33.5 63.5t58.5 -26.5q8 -10 8 -26.5t-6 -44t-15 -59.5q-27 -105 -48 -214t-35.5 -138.5t-50 -29.5t-44.5 18z" />
<glyph unicode="(" horiz-adv-x="489" d="M21 413.5q2 37.5 25.5 137.5t66.5 192.5t94 168t81.5 138t95 126t83.5 4.5q10 -31 -25 -70q-70 -74 -155.5 -213t-122.5 -230.5t-44 -135.5t-7 -151.5t6 -138t35 -71.5t32.5 -56.5t-6.5 -29.5q-41 -49 -92 47q-37 70 -53 157.5t-14 125z" />
<glyph unicode=")" horiz-adv-x="344" d="M20 87q5 29 56 103q70 92 101.5 169t46.5 186t-1 194.5t-46 171.5t-50 107.5t-30.5 62.5t-0.5 56.5t35.5 12.5t42 -36t34 -86t40.5 -92t49.5 -134.5t26.5 -165t-29 -177t-58.5 -180t-29.5 -85.5t-51.5 -81t-94.5 -64q-23 4 -33 12.5t-8 25.5z" />
<glyph unicode="*" horiz-adv-x="552" d="M20.5 1051.5q8.5 21.5 23.5 24.5t55 -4t58.5 -3t23.5 6t2 15.5t-10 24.5q-19 30 -23.5 65t1 45t23.5 13t30.5 -6t17.5 -20q12 -25 38 7.5t42.5 34t25.5 -9.5q25 -29 52.5 -0.5t57.5 24.5q31 -6 25 -48t-49 -101.5t-43 -73t65.5 -9.5t78.5 -1t17 -35.5t-17 -49t-58 -12.5 t-46.5 4t-9.5 -17t14.5 -30.5t14.5 -53.5t-22.5 -51.5t-51.5 5t-49 18.5t-37.5 26.5t-27 28.5t-35 -14t-37.5 -2t-12 64.5t-6.5 58.5t-44 8t-66.5 23.5t-20.5 45zM240 1152q0 -15 14 -15t14 15t-14 15t-14 -15z" />
<glyph unicode="+" horiz-adv-x="749" d="M27 616q-16 41 15.5 56.5t127.5 15.5l123 2l20 72q15 56 15 174q0 59 47 51q26 -6 26 -224q0 -79 8.5 -92.5t121 -31.5t145.5 -15t40 -4.5t9 -39.5l4 -50l-129 11q-18 2 -71.5 8t-87 2t-41.5 -13q-13 -15 -13 -63q-10 -63 -39 -135t-44 -72t-29.5 17.5t-13.5 34t13 55.5 q25 61 31 123.5t-9 77.5t-114.5 15.5t-125 5.5t-29.5 19z" />
<glyph unicode="," horiz-adv-x="432" d="M20 -2q-4 35 33 56.5t83 20.5t70.5 8t65.5 41t58.5 76t11.5 76.5t-6 64.5t10 44q37 37 55 -47q2 -12 5 -25q18 -111 -25 -185.5t-162 -133.5q-68 -37 -130 -35t-69 39z" />
<glyph unicode="-" d="M23 570.5q-6 25.5 3 34.5t229 8t271.5 -6t63.5 -23.5t-4 -37.5t-62.5 -23.5t-248.5 -2.5t-228 17q-18 8 -24 33.5z" />
<glyph unicode="." horiz-adv-x="200" d="M21.5 235q4.5 36 33.5 56.5t44.5 18t47 -34.5t34.5 -52t-20.5 -53t-66.5 -35t-60 31t-12.5 69z" />
<glyph unicode="/" horiz-adv-x="591" d="M61 254q105 130 242 488q45 118 64.5 140t19.5 44t15 50t47.5 117.5t49.5 116.5t41.5 27t28.5 -23.5t-27.5 -114.5t-77.5 -188.5t-126 -308.5t-154.5 -340t-113.5 -125q-92 14 -9 117z" />
<glyph unicode="0" horiz-adv-x="856" d="M29 659q8 100 19 151.5t48 131.5t37 91t74 91t132.5 123t85 48t70.5 -24.5t79.5 -29.5t103 -45t95.5 -92t40 -80t19 -92q15 -109 -80 -320q-66 -141 -235 -249.5t-322 -108.5q-41 0 -93.5 26.5t-62.5 53.5q-33 86 -10 325zM91 636q-9 -126 1 -196.5t42 -98.5t68 -26 t126 33q164 57 280 180q45 49 94.5 166t57.5 197t-32 156.5t-110 111.5q-27 14 -95 17.5t-126.5 -5t-56.5 -24.5q2 -10 10 -34t-4 -31t-42 11.5t-63.5 -17.5t-75.5 -126t-53.5 -139t-20.5 -175z" />
<glyph unicode="1" horiz-adv-x="141" d="M20 752.5q0 435.5 24 491.5t44.5 56t28.5 -14t-4 -22t-10.5 -293t14.5 -637q2 -35 -21.5 -47.5t-49.5 9t-26 457z" />
<glyph unicode="2" horiz-adv-x="946" d="M23 976q-8 28 7 57.5t77.5 88.5t123 99t182.5 11.5t193 -103.5t75.5 -198.5t-56.5 -213.5q-35 -53 -35 -62.5t-46 -61.5q-134 -151 -125 -160t121.5 -30.5t218 -33.5t135.5 -20.5t32 -25.5t-21.5 -21.5t-126.5 -4.5q-102 0 -230 15.5t-185.5 30.5t-76 8t-54 -32.5 t-69.5 -43t-45.5 -16.5t-29.5 17q-47 43 -5 89.5t113.5 55.5t99.5 22.5t97.5 77t138 172t78.5 182t-20.5 140t-81.5 100.5t-120 42t-115 -10t-102 -76.5t-69.5 -92.5t-42 -32t-36.5 30z" />
<glyph unicode="3" horiz-adv-x="729" d="M22 333q4 32 37 39t43 -28q12 -51 122 -76.5t210 2t157.5 104.5t34 153.5t-75.5 123.5t-162.5 100.5t-136.5 72t-24 38.5t16.5 27.5t74.5 15.5q121 16 245 146q100 102 88 148t-141 44q-199 -6 -287 -76t-88 -6q0 43 57.5 89t141.5 69q31 8 143.5 5t142 -9t55.5 -31 t31 -41t-3 -75.5t-76 -139.5t-135.5 -125t-85.5 -45q-35 0 -35 -22.5t41 -22.5t127 -62.5t124.5 -129t38.5 -146.5t-46 -151.5t-151.5 -113.5t-223 -34t-199.5 66q-41 27 -52.5 43t-7.5 48z" />
<glyph unicode="4" horiz-adv-x="864" d="M21.5 579.5q-1.5 14.5 0 41t4.5 55.5t14 121t27.5 154.5t16.5 100.5t15.5 64.5t41.5 -0.5q22 -22 12 -90t-18 -115q-22 -132 -26 -223l-3 -74h66q145 -7 228 -14q123 -9 132.5 6.5t17 134.5t18 230.5t32 120t32.5 -18t5 -81t-10 -222.5l-4 -170l110 -8q80 -4 95.5 -10.5 t15.5 -33t-16.5 -32.5t-102.5 -12l-117 -8l-2 -125q-2 -162 -10 -170t-35 -4l-43 6v293l-182 16q-217 19 -266 7q-13 -3 -27 7.5t-17 24.5t-4.5 28.5z" />
<glyph unicode="5" horiz-adv-x="950" d="M20 397q12 57 101 -8q18 -14 87.5 -70.5t115 -73.5t71 -17.5t102.5 18t109.5 36t89.5 70.5q106 96 96 169t-141 134q-41 20 -85 25.5t-154 5.5h-174l8 82q6 49 15 97q33 177 7 229q-8 18 -47 43q-37 25 -51 56.5t5 50.5t69.5 -6.5t232.5 -42.5t311 -9t139.5 -8t-14 -36 t-99 -32t-131 -14t-192 14t-140.5 11t-11 -167l-4 -161l110 -17q152 -25 224.5 -52.5t126.5 -80.5q39 -43 50 -65.5t11 -61.5q0 -84 -70.5 -177t-158.5 -124l-94 -35q-43 -16 -135.5 -16t-106.5 15t-35 16q-39 0 -141.5 86t-96.5 116z" />
<glyph unicode="6" horiz-adv-x="864" d="M26 737q30 184 137 339q273 395 395 266q28 -29 14.5 -50.5t-60.5 -12.5t-93 -16.5t-114 -99.5q-211 -231 -211 -512q0 -90 8.5 -122.5t59.5 -119.5t80.5 -118t115.5 -70t149.5 -21.5t156.5 115.5q45 47 63 79t32.5 100.5t10.5 108.5t-35 69t-49 33t-75.5 -4.5 t-149.5 -86.5q-154 -132 -87 -218q29 -38 85 -54q88 -29 67 -47q-18 -18 -86 1q-180 51 -146 180q21 83 110.5 168t141.5 106.5t117.5 16.5t89 -15.5t50.5 -38.5q25 -29 33 -51.5t8 -74.5t-21.5 -133t-48.5 -124t-94.5 -102.5t-97.5 -67.5q-281 -78 -463 190 q-125 186 -93 387z" />
<glyph unicode="7" horiz-adv-x="774" d="M26 1176.5q15 21.5 44 13.5q127 -39 310 -41t220 3.5t66 25.5q63 51 85 16t-36 -96q-2 -4 -6 -6q-72 -76 -152 -344q-18 -59 -18 -76t18 -30t66.5 -20.5t84 -14.5t35.5 -23t-20.5 -19.5t-75.5 0.5t-72.5 6t-38 -5t-25.5 -14t-15 -35q-10 -32 -21 -136q-23 -213 -78 -193 q-31 12 -27.5 70.5t48.5 253.5q14 61 -11.5 79.5t-160.5 39.5q-96 16 -19 57q29 16 48.5 16.5t84 -19.5t77.5 -19.5t32.5 54.5t45.5 138t51.5 141.5t19.5 67.5q-2 2 -127 7q-382 15 -428 63q-20 18 -5 39.5z" />
<glyph unicode="8" horiz-adv-x="784" d="M22 945q3 22 31 75q70 127 258 213q98 45 226.5 34.5t187.5 -65.5q25 -25 32 -46t7 -73l-2 -79l-113 -78q-90 -63 -199.5 -177t-109.5 -145q0 -10 24.5 -38.5t59.5 -57.5q213 -178 263 -266t-19 -154q-35 -33 -74 -49t-93.5 -24.5t-84 -2.5t-84.5 33q-104 49 -151.5 126 t-47.5 179.5t37 161.5q61 98 30.5 111.5t-95 109.5t-75.5 143t-8 69zM84 942q-17 -64 104 -212q52 -64 66 -64q8 0 68 57q213 204 272 244.5t75.5 60t18.5 49t-6 45t-37 31.5q-47 29 -161 28t-189.5 -33t-138.5 -100.5t-72 -105.5zM229.5 297.5q24.5 -109.5 104.5 -170.5 q37 -27 63.5 -35t98 -8t107.5 25.5t28 73t-54 98.5t-157.5 146t-128 95t-39.5 -37q-47 -78 -22.5 -187.5z" />
<glyph unicode="9" horiz-adv-x="798" d="M23 915q-6 68 13.5 120t76.5 122t134 110t149 45q147 10 222 -38q33 -23 41.5 -52.5t-12.5 -52.5q-16 -14 -23.5 -13t-25.5 24q-35 41 -153.5 52t-139.5 -22q-8 -14 -31 -14q-47 0 -121.5 -91t-74.5 -140.5t21.5 -91.5t47.5 -52q82 -33 137.5 -20.5t176.5 80t170 115.5 t72.5 102.5t48.5 50.5t23.5 -54.5t-26 -125t-22.5 -211.5t17.5 -267.5t29.5 -147.5t-10.5 -54t-52 -32t-35.5 167t-13.5 319.5t-25.5 157.5q-10 0 -128 -71t-191.5 -88t-149.5 7.5t-107.5 61.5t-37.5 104z" />
<glyph unicode=":" horiz-adv-x="157" d="M26.5 205q-18.5 45 8.5 94q14 25 41.5 27t48 -22.5t6.5 -78t-41 -57.5q-45 -8 -63.5 37zM35 596q-2 33 14 67t42.5 30.5t34 -16.5t9.5 -51t-3 -53.5t-28.5 -27.5t-45 3t-23.5 48z" />
<glyph unicode=";" horiz-adv-x="342" d="M22 21q1 8 25.5 27t53 28.5t47.5 10.5q45 2 71.5 55.5t10 79.5t-18.5 54.5t8 40.5q16 14 42 8t36 -28q16 -27 16 -107t-24.5 -119.5t-87.5 -72.5q-117 -57 -162 -8q-18 23 -17 31zM211 607q-2 30 14 59q12 27 40 28.5t48 -20.5q14 -25 5 -56.5t-36.5 -52t-48.5 -4.5 q-20 16 -22 46z" />
<glyph unicode="&#x3c;" horiz-adv-x="718" d="M20 539.5q0 21.5 7.5 30t27 18.5t43.5 24q98 53 168 100.5t150 93.5t113.5 68.5t56.5 61.5t39 39t29.5 -23.5t3 -41t-71 -72t-69.5 -54.5t-87 -51t-111 -77t-26.5 -45t49.5 -19t199.5 -79t156.5 -122q0 -51 -92 -6q-122 76 -196 96t-166 27.5t-134.5 -4.5t-66 1 t-23.5 34.5z" />
<glyph unicode="=" horiz-adv-x="684" d="M22.5 488q10.5 10 17.5 19t43 10t148.5 -7t247.5 -16t155 -27t16.5 -42.5t-32 -37.5t-61.5 -1t-223.5 21.5t-235.5 14.5t-61 24q-25 32 -14.5 42zM51 807q6 14 57.5 17t287.5 -1t255 -18q8 -4 13 -21q4 -33 -16.5 -53t-52.5 -20t-56.5 -8.5t-36.5 -14.5q-30 -14 -44.5 6 t-128.5 35.5t-218 15.5q-33 2 -50.5 19.5t-9.5 42.5z" />
<glyph unicode="&#x3e;" horiz-adv-x="598" d="M27 946q12 14 17 14.5t21.5 -13t31 -31t46 -40t67.5 -40.5q87 -45 197.5 -46t140.5 -13.5t30 -45.5q0 -10 -29 -33.5t-59 -47.5q-72 -58 -189.5 -175.5t-152.5 -145.5t-52.5 -14t-17.5 32t164 181l166 166l-41 15q-42 16 -60 16t-31.5 14.5t-38 14.5t-82 33.5 t-102.5 80.5t-26 78z" />
<glyph unicode="?" horiz-adv-x="702" d="M21.5 951.5q-5.5 33.5 60.5 90.5q190 165 308 194q61 15 121 8t102 -33.5t61.5 -116.5t-5.5 -137.5t-77.5 -126.5t-151 -150.5t-158 -81.5t-66.5 -21t17.5 -124t47.5 -157t5.5 -60t-54.5 8t-37 46.5t-3.5 30t-8.5 11.5q-15 12 -31 110t-40 148.5t-3.5 70t85 19.5t95 9 t76.5 36q106 68 174.5 157t70.5 165q6 117 -100 120q-149 4 -371 -196q-49 -45 -80.5 -49t-37 29.5zM210 20.5q-1 49.5 17 67.5q49 51 58 -49q4 -53 -8.5 -69.5t-39 -7.5t-27.5 58.5z" />
<glyph unicode="@" horiz-adv-x="985" d="M20 375q0 72 10.5 109.5t53.5 125.5q84 174 213 294t244 130q80 8 133 -6t130 -65t108.5 -106.5t44.5 -168.5t0 -172t-61 -120.5t-103.5 -90.5t-77 -32t-58.5 10q-57 16 -96 73l-37 58l-67 -43q-139 -88 -205 -29q-35 33 -35 83t15.5 74.5t82.5 88.5q215 199 330 137 q23 -12 29 -48t-12 -46q-13 -10 -24 -77t-15 -91q-12 -53 15.5 -75.5t67 -15.5t84.5 41t62.5 84t16.5 162.5t-23.5 154.5t-99.5 89t-157.5 49t-146.5 -37q-178 -109 -286 -329q-49 -102 -60.5 -139t-7.5 -97q8 -125 81 -230.5t169 -131.5q55 -16 213 -13.5t236.5 23.5 t86.5 2q4 -8 -13 -18q-125 -69 -310.5 -73.5t-288.5 44.5q-51 25 -114.5 89t-63.5 85.5t-25.5 65t-32 77t-6.5 105.5zM281 426q8 -23 63 -11.5t96 44.5t79 82.5t38 74.5q0 49 -117 -26q-117 -76 -151 -137q-10 -16 -8 -27z" />
<glyph unicode="A" horiz-adv-x="1011" d="M20 125q0 33 33 88q35 59 129 295.5t125 298.5l55 102q29 53 149 170t136 117q76 0 113 -438l18 -217l107 6q26 1 45 1q29 0 41 -2q20 -3 20 -18.5t-44 -27t-109 -11.5h-43l14 -92q12 -92 12.5 -154.5t-5 -73.5t-31 -11t-31.5 13t-8.5 96t-20.5 141l-20 59l-156 8 q-154 5 -205 31q-37 18 -52 19q-6 0 -9 -3q-2 -2 -35 -94t-80 -191.5t-82 -121.5q-29 -19 -46 -19q-20 0 -20 29zM342 631q23 -51 106 -61q97 -12 195 -31l57 -11l-10 125q-27 348 -61 394q-7 9 -16 9q-5 0 -13 -4q-18 -12 -90 -84q-72 -74 -128 -184q-44 -86 -44 -131 q0 -12 4 -22z" />
<glyph unicode="B" horiz-adv-x="1116" d="M27 1176q7 18 31 20h9q23 0 71 -9q56 -11 128 -27q193 -46 483.5 -76t321.5 -46q19 -14 23 -50q1 -10 2 -18q0 -22 -8 -32q-10 -14 -65 -51t-156 -85t-130 -48q-47 0 -47 -22q0 -37 133 -136q94 -70 132 -122t37.5 -106.5t-10 -75t-64 -70.5t-137.5 -86t-125 -43 t-146.5 -7t-146 15.5t-77 60.5t-39 60.5t8.5 39.5q14 33 41 33t27 -35q0 -37 13 -50t21 -9q7 5 8 113v51q0 97 -2.5 239t-2.5 244v55v15q0 103 -13 119q-14 17 -115.5 40t-147.5 23q-64 0 -64 44q0 14 6 32zM446 1010q-2 -33 -2 -107q0 -119 6 -343q10 -366 17 -378 q16 -22 63 -22q56 0 156 32q70 23 134.5 63t81.5 72t16.5 47t-18 47t-68 76t-98.5 79.5t-86 85t-38 80t2 40t11.5 19.5t21.5 16t44 15q67 20 161 38q41 10 80 32q40 22 58 46q10 13 10 23q0 8 -7 14q-8 6 -259 31q-182 18 -241 18q-22 0 -27 -2q-17 -10 -18 -22z" />
<glyph unicode="C" horiz-adv-x="1067" d="M23 422q-2 16 -2.5 40t2.5 56q12 156 110 299q33 47 136.5 129t157.5 107q46 21 104 21h21q72 -4 100 -31q28 -25 27 -54q-1 -31 -23 -44t-28.5 -11t-17 9t-18.5 18.5t-24.5 17.5t-37.5 8h-7q-45 0 -138 -47q-101 -51 -177 -150q-76 -98 -100 -200q-10 -40 -10 -80 q0 -61 24 -120q38 -97 140 -150q49 -25 86 -31q32 -5 114 -5h30q106 1 196 20.5t131 42t71 42t37 19.5t52 30q29 19 46 20q11 0 17 -6q4 -4 3 -10q0 -19 -46 -57q-115 -99 -297 -149q-129 -36 -249 -35q-50 0 -99 6q-82 10 -155.5 57.5t-97 74t-48.5 78.5t-30 85z" />
<glyph unicode="D" horiz-adv-x="1052" d="M26 1012q-6 10 -6 19q0 11 7 21q12 16 33 16q4 0 8 -1q28 -4 54 -15q78 -32 106 -32t41.5 -6t31.5 -18q61 -43 231 -109q320 -131 440 -292q62 -82 61 -159q0 -73 -56 -141q-55 -66 -193 -120q-138 -53 -280 -71q-37 -5 -76 -5q-108 0 -226 36q-160 49 -167 103 q-1 9 -1 16q0 36 31 51q12 6 21 6q21 0 31 -28q4 -20 50 -47t75 -27q9 0 9 144q0 82 -3 212l-6 355l-58 26q-59 27 -102 36.5t-56 29.5zM325 768q3 -118 7 -228q2 -49 2 -87q0 -47 -3 -77q-1 -10 -1 -19q0 -39 18 -58q17 -18 16 -44q0 -8 -2 -17q-6 -38 0 -47t48 -17 q8 -1 18 -1q50 0 170 29q146 36 240 85q45 25 84 72t39 77q-3 94 -140 205q-168 134 -381 207q-73 26 -92 43q-10 7 -16 7q-4 0 -6 -4q-2 -5 -2 -46q0 -30 1 -80z" />
<glyph unicode="E" horiz-adv-x="1079" d="M20 682q-2 16 35.5 29t47.5 17.5t18 20t11 29.5q11 54 36 135q4 18 -1 28.5t-31 20t-39 33t-3 41.5q6 9 32 9q28 0 82 -11q102 -20 210 -59q104 -43 367.5 -82t271.5 -51q2 -2 2 -6q-1 -20 -69 -20q-78 0 -244 26q-312 49 -380 68q-66 19 -83 19l-1 -1q-16 0 -41.5 -26 t-35.5 -108q-3 -24 -3 -41q0 -42 17 -48q88 -27 200.5 -35t173 -13t60.5 -22q0 -12 -45 -16.5t-190 -6.5l-238 -2l-16 -71q-12 -49 -18 -130q-3 -36 -3 -57q0 -25 4 -26h7q8 0 21 -1t30.5 -2t40 -2.5t47 -3.5t52.5 -5t55.5 -6t56 -6t104.5 -13t212 -10.5t171 -5.5 q54 -8 54 -43q0 -11 -5 -25q-9 -23 -110 -23q-72 0 -192 12q-262 25 -463 25l-101 8q-10 0 -30.5 11.5t-22.5 14.5t-10.5 24.5t-6.5 30.5t3 44t5.5 53.5t17.5 107.5q9 61 9 86q0 11 -2 15q-6 12 -24 11h-21q-22 0 -22 35z" />
<glyph unicode="F" horiz-adv-x="1204" d="M20 920q0 6 14 16q25 19 58 19q10 1 20 -1q46 -8 188 -11t153.5 -9t241 -8t301 -4t116.5 -9.5t58.5 -17.5t13.5 -31q0 -20 -22 -28q-22 -10 -42 6q-16 12 -224 13q-54 0 -120 -1l-321 -6l-9 -37q-7 -25 -7 -58q0 -13 1 -28l15 -139q8 -88 19 -98.5t102.5 -27t206 -25.5 t116.5 -23q0 -6 -8 -17q-16 -18 -145 -18q-62 0 -151 4q-87 4 -101 7q-14 2 -18 -14q-2 -8 -3 -36q0 -32 3 -90q1 -16 0 -30q0 -79 -24 -79h-1q-10 0 -27.5 14.5t-27.5 110.5q-4 37 -5 63q0 43 11 61q17 28 14.5 35t-34.5 -1q-8 -2 -16 -2q-23 0 -45 17q-29 23 -31.5 32.5 t9.5 26.5q18 23 46 22.5t32 22.5t4 143v164l-51 12q-45 10 -130 13.5t-132.5 11.5t-47.5 35z" />
<glyph unicode="G" horiz-adv-x="1095" d="M24 376q-2 29 -2 58q0 137 51 264q62 152 181 263.5t262 148.5q10 2 50 13t54 13h4q14 0 44 -12q32 -12 96.5 -22t87.5 -47q18 -26 18 -39q0 -15 -22 -15h-4q-23 2 -64 19q-76 34 -154 34q-93 0 -190 -48q-244 -121 -323 -398q-28 -100 -28 -181q0 -116 57 -193 q96 -132 341 -132q141 2 243.5 92.5t102.5 215.5q0 47 -36.5 84.5t-87.5 37.5t-82 43q-14 20 -14 37q0 20 20 37q15 15 59 4q93 -21 191 -32q197 -24 197 -51q0 -1 -1 -3q-8 -14 -98 -24l-88 -11l8 -100q2 -26 2 -49q0 -53 -13 -89q-18 -52 -84.5 -130t-194.5 -108 q-71 -16 -143 -16q-57 0 -114 10q-129 24 -221 90.5t-105 235.5z" />
<glyph unicode="H" horiz-adv-x="1036" d="M22 536q8 22 15.5 22t38 -7.5t67.5 -9.5h60l-4 245v40q0 211 20 221q10 4 29 -15q18 -18 30 -256q13 -236 27 -246q7 -5 53 -5q46 1 132 5q172 10 193 19.5t23 47.5q1 9 1 27q0 57 -6 202q-2 59 -2 102q0 97 12 114q18 20 29 20q8 0 12 -11q16 -37 43 -371l12 -139 l88 -23q88 -23 109 -35q15 -9 15 -15q0 -9 -32 -11h-12q-29 0 -85 7q-29 4 -49 4q-25 0 -32 -7q-12 -12 -17 -187t-34 -178h-3q-11 0 -27 16q-18 18 -22 46q-1 10 -2 34q0 44 4 130q2 43 3 73q1 62 -9 67q-4 2 -26 2q-49 0 -187 -11l-198 -15l2 -88q0 -98 8 -145t10 -67 q4 -35 -18 -42q-10 -4 -18 -4q-25 0 -37 32q-16 42 -25 167l-10 162l-80 16q-69 17 -89 31q-14 10 -14 23q0 7 2 13z" />
<glyph unicode="I" horiz-adv-x="931" d="M20 915q1 7 5 15q10 18 119 18q58 0 144 -6q247 -14 323.5 -40.5t183 -36t114.5 -42.5q1 -2 1 -3q0 -4 -5 -9q-6 -7 -51.5 -7t-131.5 7q-171 14 -203 31.5t-40 11.5q-6 -7 -6 -109q0 -37 1 -89q3 -188 16 -356q9 -111 9 -156q-1 -22 -3 -28q-6 -18 10 -18h3q19 0 71 5 q58 5 95.5 8.5t71 8.5t43.5 7q24 5 46 -12q19 -13 19 -26q0 -26 -89 -46q-136 -29 -358 -31q-74 -1 -129 -1q-110 0 -143 3q-50 4 -65 19.5t-13.5 25t33.5 39t48 13.5q17 -17 153 -19h38q99 0 107 12q9 14 -7 24q-33 22 -33 413l-2 309l-170 12q-205 14 -205 53z" />
<glyph unicode="J" horiz-adv-x="874" d="M27 848q-7 9 -7 18q0 10 9 19q12 10 361 23.5t353 17.5q23 4 39 4q72 0 72 -35q0 -29 -71.5 -40t-275.5 -17t-211 -13.5t0 -29t-2 -24.5t-63 3q-164 23 -204 74zM40 72q19 43 48 68.5t41 25.5q18 0 20.5 -27.5t-18.5 -58.5t-7.5 -52.5t77.5 -54.5q51 -26 105 -26 q67 0 138 41q88 52 130 126q20 34 20 92q0 25 -4 54q-7 57 -35 117q-36 81 -81 175q-66 140 -66 194q0 9 2 16q10 25 27 25q10 0 23 -9q34 -23 34 -67.5t73 -196.5q101 -206 101 -337q0 -27 -4 -50q-25 -139 -207 -227q-63 -33 -92 -38q-12 -2 -30 -2q-26 0 -63 4 q-64 7 -132 41t-87 66q-19 36 -19 66q0 18 6 35z" />
<glyph unicode="K" horiz-adv-x="886" d="M20 604v7q0 27 28 38q32 12 37 33q4 18 4 92v32v28q0 80 5 108q6 33 35 33q29 -1 38 -29q5 -16 5 -51q0 -28 -3 -67q-3 -37 -3 -62q0 -36 6 -48q4 -9 19 -9q19 0 54 15q63 26 261.5 82t253.5 62q33 4 52 4q14 0 20 -2q16 -4 26 -26q9 -15 9 -29q0 -23 -25 -42 q-21 -16 -45 -16q-20 0 -41 11q-9 5 -27 5q-17 0 -39 -4q-48 -9 -184.5 -53t-171.5 -61.5t-35 -41.5t69.5 -90t149.5 -121.5t209 -186.5t138 -162q3 -9 3 -17q0 -19 -15 -32q-7 -6 -16 -6q-17 0 -39 24q-34 36 -132.5 141t-247 221t-178.5 191q-14 34 -33 29q-14 -5 -14 -64 q0 -16 1 -37q5 -95 27 -167q14 -62 14 -88v-6q-2 -24 -13 -66.5t-11 -82.5t-20.5 -66.5t-47.5 -20.5q-20 2 -25 44t-12 233l-6 272l-37 8q-39 8 -43 41z" />
<glyph unicode="L" horiz-adv-x="802" d="M22 214q4 104 19.5 262.5t21 251.5t6.5 139t4 86t10 53.5t21 13.5t29 -19q10 -13 10 -127q0 -48 -2 -116q-6 -226 -26 -406q-11 -97 -11 -147q0 -41 8 -49q9 -9 64 -9q50 0 137 7q213 16 329 16q140 0 140 -23q0 -12 -43 -33.5t-335 -45.5q-290 -25 -302 -32 q-4 -2 -10 -2q-10 0 -22 8q-20 13 -30 19t-16 28q-4 13 -3 54q-1 29 1 71z" />
<glyph unicode="M" horiz-adv-x="1028" d="M20 146.5q0 23.5 4.5 51t14.5 66.5t21 75q32 111 47 180t78 307.5t75 279.5q7 15 26 15q4 0 9 -1q27 -4 35 -22.5t36.5 -187t78 -326.5t87.5 -164q5 -1 10 -1q46 0 115 78q76 87 115 183.5t61.5 132t34.5 67.5t29.5 80t24.5 62q6 20 27.5 25.5t29.5 -7t13 -225.5 t9.5 -445.5t7.5 -274.5v-9q0 -33 -20 -35h-3q-38 0 -54 161q-18 168 -17 348q0 180 -13 180t-61 -104q-48 -103 -82 -145t-108 -101q-75 -60 -117 -62h-3q-41 0 -76 47q-66 85 -103 275q-36 186 -62 186h-1q-4 0 -8 -5q-14 -14 -65.5 -221t-74 -334.5t-38 -156.5t-39 -26 t-34 16.5t-10.5 37z" />
<glyph unicode="N" horiz-adv-x="1007" d="M22 110q6 76 41 255l58 272q4 23 17 105q33 199 50.5 221t45.5 10t50.5 -55.5t77 -120t109.5 -184t86 -156.5t58.5 -87t56.5 -84t38 -46t22 135t49 328.5t96 304.5q14 26 34 26q7 0 15 -2q30 -12 38.5 -60t18.5 -72q4 -10 4 -17q0 -11 -9 -18q-15 -11 -30.5 1t-20.5 14.5 t-12.5 -7t-13.5 -26t-20 -50.5q-45 -127 -64 -527q-6 -127 -12 -165.5t-23.5 -49t-31 -3.5t-39.5 40q-35 39 -68 98.5t-74 115.5t-117.5 187.5t-135 225.5t-76.5 94q-9 0 -30.5 -127t-36.5 -193.5t-26.5 -147.5t-17.5 -136t-17 -105q-10 -52 -26 -72q-11 -14 -26 -13 q-8 -1 -17 3q-22 9 -22 63q0 12 1 25z" />
<glyph unicode="O" horiz-adv-x="745" d="M20 426q2 156 80 305.5t205 231.5q63 41 108 41q14 0 27 -4q19 -7 61 -25.5t92 -31.5t85 -57t41 -72t6 -103q-4 -168 -64.5 -321.5t-159 -248t-207.5 -94.5q-110 -1 -193 111q-81 109 -81 261v7zM160 690q-73 -150 -73 -271q0 -137 95 -235q52 -53 96 -62q10 -2 20 -2 q39 0 91 25q39 18 101.5 103.5t88 149t45 169t20.5 156.5v10q0 43 -8 63q-9 22 -36 50q-31 29 -48 35q-7 3 -21 3q-19 0 -51 -5q-19 -3 -32 -3q-25 0 -32 10q-9 13 -28 13h-5q-23 -2 -53.5 -21.5t-61.5 -47.5q-71 -64 -108 -140z" />
<glyph unicode="P" horiz-adv-x="917" d="M20 503q0 28 30 46t51 0t21 -36.5t46.5 -42.5t58.5 -15q25 14 35 288l8 175l-51 22q-49 20 -99 20.5t-64.5 22.5t15.5 43.5t30.5 21.5t39.5 -10q180 -48 295 -72t303 -92q78 -26 126 -104q32 -52 32 -97q0 -23 -8 -44q-12 -33 -76.5 -87.5t-99.5 -62.5q-2 0 -43 -17 q-96 -38 -269 -69q-57 -8 -73 -43q-10 -23 -10 -66q0 -24 4 -54q6 -63 6 -91q0 -9 -1 -15q-3 -22 -18 -28q-10 -3 -18 -3q-23 0 -34 25q-15 34 -19 132l-5 129l-43 12q-45 12 -95 34.5t-62.5 36t-12.5 41.5zM338 467l80 4q178 10 317 100q61 41 79 73q10 18 9 38q0 16 -6 33 q-37 98 -285 157q-116 27 -143 29h-7q-21 0 -27 -10q-7 -12 -13 -217z" />
<glyph unicode="Q" horiz-adv-x="1150" d="M36 563q47 192 218 331q94 77 203 116q2 0 24.5 4t60.5 5h15q30 0 57 -3q35 -4 63 -24.5t32 -49.5t23.5 -43t84.5 -41q135 -53 219 -159.5t92 -239.5q1 -18 1 -34q0 -30 -5 -48q-8 -27 -58 -104.5t-89 -102.5q-25 -17 -25 -29q0 -16 49 -22q37 -6 37 -28t-51 -27 q-11 -1 -21 -1q-37 0 -65 15q-17 9 -40 9t-50 -9q-55 -19 -172 -33q-82 -10 -141 -10q-26 0 -47 2q-164 12 -285 119q-144 127 -144 297q0 53 14 110zM92 542q-7 -43 -7 -81q0 -77 31 -135q46 -88 103 -132t142 -66q70 -19 172 -19q22 0 47 1q133 5 164 21t25.5 27.5 t-55.5 67.5t-98 167q-36 80 -36 112q0 12 6 17q2 3 6 3q21 0 70 -85q16 -27 44.5 -83t91.5 -108q53 -44 83 -44q5 0 10 1q31 9 93 93t68 145v14q0 57 -42 134q-107 206 -360 241q-108 15 -170 15h-22q-63 -4 -120 -34t-65.5 -45t9 -44t7.5 -39t-39 16.5t-29 47.5 q0 39 -37 -2q-68 -78 -92 -206zM471 932q0 -8 69 -20q39 -6 58 -6q15 0 18 4q3 2 3 5q0 7 -11 14q-18 11 -51 14q-25 2 -43 2q-43 0 -43 -13z" />
<glyph unicode="R" horiz-adv-x="868" d="M21 388q1 230 9.5 330.5t27.5 131.5t24.5 75t7.5 81.5t30 79.5t87 69t106 27t153.5 -64.5t225.5 -178.5q118 -113 146 -195q9 -25 9 -49q0 -53 -42 -97q-61 -64 -181 -106.5t-230.5 -54t-110.5 -27.5q-2 -12 26 -33q72 -49 285 -246q59 -54 59 -82q0 -14 -14 -22 q-6 -4 -14 -7h-2q-23 0 -131 96q-112 100 -216 190q-83 71 -105 71q-5 0 -7 -4q-8 -22 -25 -186t-53 -164q-14 -2 -37 20q-21 23 -25 69q-4 38 -3 198v78zM166 956q2 -115 10 -279.5t14 -168.5q12 -12 114 -13h12q94 0 160 15q70 16 157.5 55t111.5 68q27 34 27 71 q0 24 -12 50q-30 64 -152 174q-182 166 -298 166q-60 0 -103 -45q-41 -43 -41 -93z" />
<glyph unicode="S" horiz-adv-x="864" d="M29 268q22 28 46 28q5 0 11 -1q30 -8 29.5 -39t21 -50.5t103.5 -59.5q81 -38 189 -42q8 0 17 -1q96 0 168 38q78 41 110 66.5t45 55.5t9 42t-33.5 38t-155.5 76t-253 112.5t-172 125.5q-42 58 -42 115q0 51 34 102q31 45 103.5 101t110.5 68t106 18q20 2 42 1 q53 0 117 -10q90 -14 126 -47t38 -73.5t-23 -50.5q-49 -18 -49 14q0 18 -35 42t-83 38q-22 6 -54 6q-37 -1 -87 -9q-93 -16 -149.5 -48.5t-96.5 -79.5t-40 -80q0 -57 126 -138t284 -137.5t205 -95.5t47 -104.5t-69.5 -129t-183.5 -97.5q-93 -28 -199 -29q-24 0 -50 2 q-136 8 -243 94q-80 64 -80 110q0 15 10 29z" />
<glyph unicode="T" horiz-adv-x="1218" d="M25 852q-3 9 -3 17q0 27 37 37q48 12 241.5 14t211.5 2t152.5 -5t244 -6.5t159.5 -4.5t82 -10t40 -19.5t8 -37t-16.5 -32.5t-39.5 10q-22 17 -275 21q-42 1 -78 1q-179 -1 -198 -15q-23 -18 -27.5 -79t-7.5 -367.5t-19 -311.5q-6 -2 -11 -2q-18 0 -32 20q-18 26 -33 72.5 t-29 68t-13 31.5t22 17t25.5 42t7.5 175t7 249l4 82l-227 4q-135 2 -181 7.5t-52 19.5z" />
<glyph unicode="U" horiz-adv-x="835" d="M20 659q2 119 35 236t68 123q5 1 10 1q32 0 32 -32q0 -5 -1 -10q-6 -31 -34 -88t-34 -94q-4 -28 -4 -95v-49q2 -184 52.5 -290.5t134.5 -106.5q164 0 385 440q71 138 71 211q0 46 -28 66q-27 20 -66 20q-41 0 -96 -22q-35 -14 -44 -14.5t-17.5 19.5t12.5 35t87.5 33 t88.5 18q1 0 1 1q22 1 58 -15q37 -16 51 -32q13 -16 26 -66q8 -31 8 -61q0 -19 -3 -37q-8 -48 -96 -223.5t-143 -252.5t-152.5 -142.5t-163.5 -65.5q-94 0 -167 150q-71 146 -71 333v10z" />
<glyph unicode="V" horiz-adv-x="870" d="M22 970q-2 6 -1 12q1 20 17 34q22 18 30 15t24 -27.5t54 -75.5q78 -105 90 -141.5t37.5 -107.5t79.5 -233.5t71 -162.5q16 0 61 90t66.5 158.5t105.5 243.5t84 208q-1 33 21 51q18 14 40 14q5 0 10 -1q28 -5 33 -15q4 -9 4 -37v-13q-1 -40 -8 -59.5t-17 -34.5 q-53 -78 -106.5 -182t-84.5 -204t-103.5 -250t-93.5 -158q-7 -3 -14 -3q-13 1 -22 11q-15 16 -43.5 94t-55.5 163t-35 104t-53 153t-64.5 170.5t-70 97t-56.5 86.5z" />
<glyph unicode="W" horiz-adv-x="1263" d="M21 1016q-1 10 -1 19q0 25 9 33q10 9 26 9h5q20 -2 33 -23.5t45 -120.5t60.5 -233t82 -307.5t70.5 -192.5t24.5 -18.5t33 33.5t58.5 108.5t47 147.5l47 209q18 94 40 126t46 15.5t36.5 -68t28 -186.5t44 -204.5t86.5 -126.5l49 -50l27 37q27 33 51 132.5t24 179t76 366.5 q31 111 59 129q6 4 14 5q25 0 62 -46q40 -47 40 -68q0 -18 -28 -18h-6h-6q-29 4 -40 -9t-35 -86t-39 -209t-46 -280q-12 -53 -71 -184q-18 -37 -52.5 -41t-55.5 10.5t-68 63.5q-139 147 -154 307q-8 86 -19 86h-1q-12 -4 -22.5 -77.5t-34 -148.5t-42 -107.5t-33 -56.5 t-14.5 -36t-51 -50t-70 -38q-39 0 -103.5 177t-120.5 429t-91 299q-16 23 -20 64z" />
<glyph unicode="X" horiz-adv-x="813" d="M23 997q8 22 21 22t30 -20q18 -20 33 -62t66.5 -107.5t191.5 -221.5q14 -16 36.5 11.5t54 79t56.5 71.5t59.5 76.5t67.5 94.5q28 33 57 33l9 -1q27 -5 27 -27q0 -31 -54 -96q-10 -12 -33 -41q-45 -49 -58.5 -69.5t-50.5 -68.5q-77 -102 -77 -128.5t89 -108.5t152.5 -119 t81.5 -61q11 -15 10 -31q0 -10 -4 -20q-10 -27 -29 -24t-20 16q0 14 -19 14t-131 85t-143 119t-53 25.5t-35.5 -68t-62.5 -125t-74 -112.5t-42 -61q-7 -6 -15 -7q-10 1 -20 11q-18 18 -18 32q4 57 130 267l88 145l-94 98q-94 98 -133 150.5t-71 130.5q-25 62 -25 88 q0 6 2 10z" />
<glyph unicode="Y" horiz-adv-x="845" d="M29 1069q10 10 20 10t42 -42t32 -52t75.5 -117.5t110.5 -144.5q94 -107 94 -171v-5q-2 -29 -28 -29q-23 0 -42.5 26.5t-34.5 49.5q-42 62 -108 154q-66 86 -88 138t-47 85q-35 47 -35 75q0 14 9 23zM320 72q-3 9 -3 21q0 18 9 40q227 561 263 611.5t36 64.5t51 93t51 92 t29 30q10 7 21 7q18 0 38 -19q10 -11 10 -21q0 -2 -1 -5q-3 -11 -25 -38q-35 -37 -112 -188.5t-184.5 -414.5t-118.5 -277.5t-33 -18.5q-3 -1 -6 -1q-17 0 -25 24z" />
<glyph unicode="Z" horiz-adv-x="921" d="M28 886q-7 7 -7 15q0 11 11 24q12 16 33 16q11 -1 24 -5q38 -12 216 -12t227.5 -1t91.5 -4.5t61.5 -8.5t33.5 -15q20 -14 20 -47t-24.5 -72t-89.5 -121q-215 -261 -347 -407q-120 -133 -119 -156q1 -2 1 -3q9 -9 47 -9q15 0 33 1q68 5 137 23q239 62 380 62q55 0 95 -10 q48 -11 48 -40q0 -7 -3 -14q-6 -16 -53 -18q-205 -9 -373 -45q-139 -35 -256 -45q-38 -3 -68 -3q-62 -1 -89 13t-27 40q-1 12 5 25q18 44 128.5 160.5t183.5 206.5l189 230q110 131 110 151q-1 29 -115 29q-104 0 -218 -8q-34 -2 -64 -3q-73 1 -129 15q-78 20 -93 36z" />
<glyph unicode="[" horiz-adv-x="557" d="M20 84l25 139q18 109 49 432.5t31 466t17 159.5t188.5 10t191.5 -29q41 -39 -53 -54q-37 -6 -96 -10l-137 -8l-11 -119q-6 -72 -25 -239q-44 -397 -50 -623l-3 -51l160 -2q192 0 183 -36q-3 -14 -9 -36q-12 -27 -36.5 -32t-121 -5t-150.5 -3t-69 -4q-27 -2 -51 17z" />
<glyph unicode="\" horiz-adv-x="612" d="M31 1143q37 37 90 -66l102 -186q76 -135 76 -144.5t147.5 -311.5t145.5 -357q-2 -35 -40 -30t-48 16.5t-19 48.5q-20 100 -130.5 310t-132.5 265t-85 167t-96 188.5t-10 99.5z" />
<glyph unicode="]" horiz-adv-x="565" d="M20 -4q-4 37 34 59.5t92 29.5t88 12t51.5 7t40 14.5t27.5 19.5t13 39q9 41 9 142q8 227 25 399t20 329v157l-174 25q-172 27 -190.5 41t-22.5 40t9 39t56 9t79 -22.5t122 -20.5t155.5 -6t82.5 -29q8 -12 8 -19.5t-3 -22.5t-10 -38q-16 -57 -20 -175t-20.5 -287 t-16.5 -434t-16 -284q-23 -12 -33 -9t-54 2t-90.5 -15t-73 -16t-33.5 1q-13 6 -27.5 -5t-41 -16t-54 3t-32.5 31z" />
<glyph unicode="a" horiz-adv-x="1013" d="M22 215q-1 7 -1 16q1 45 31 131q36 102 92.5 172t146.5 132q91 61 163 76q22 4 41 4q47 0 85 -24q47 -31 46 -69q0 -6 -1 -12q-8 -45 8 -55t14 -49q-3 -39 -25 -82q-13 -25 -13 -54q1 -21 7 -41q16 -52 56.5 -87t91.5 -65t100 -35q13 -1 25 -1q33 0 55 10q31 14 44 2 q4 -4 4 -9q0 -9 -18 -21q-26 -18 -69 -33t-81 -15t-108.5 39t-123.5 95.5t-63.5 56.5t-47.5 -32t-83 -70.5t-106 -71.5q-61 -34 -114 -34q-57 0 -104 40q-45 41 -52 86zM96 200q13 -27 64 -27h4q55 1 81.5 11.5t65.5 38.5q219 168 219 285q0 28 24 66q14 22 14 44 q0 14 -6 28q-16 34 -30 34q-178 -27 -335 -193q-37 -37 -55 -71q-20 -36 -40 -112q-12 -46 -12 -74q1 -19 6 -30z" />
<glyph unicode="b" horiz-adv-x="778" d="M22 114q16 12 46 -14q30 -28 114 -30h16q72 0 113 20l92 43q55 27 162 132.5t107 131.5q0 41 -62 59q-38 11 -85 12q-30 0 -64 -5q-86 -12 -133.5 -39.5t-54.5 -45.5t-8 -89.5t-21 -83.5t-29.5 -9t-22.5 18q-12 14 -16 36q-3 17 -3 53v19q1 50 4 108.5t8 180.5t9.5 282 t11.5 179q8 18 28 20q2 0 2 1q19 0 34 -18q19 -37 18 -130v-43q-4 -128 -16 -274q-8 -101 -9 -134q0 -14 2 -16q1 -1 2 -1q13 0 89 33q78 33 175 34q11 0 21 -1q110 -4 173 -58q27 -23 31 -39q3 -10 3 -22q0 -81 -130 -210q-113 -112 -231 -167q-115 -54 -200 -54h-3 q-86 1 -148 66q-30 31 -30 46q1 6 5 9z" />
<glyph unicode="c" horiz-adv-x="727" d="M22 256q3 20 33 90q45 92 69.5 121.5t56.5 55.5t80 58.5t99 52.5q60 24 105 24q51 0 82 -31q13 -13 13 -22q0 -21 -56 -30q-20 -4 -61 -5t-72 -13t-99.5 -60t-120 -119t-51.5 -118t29 -89t72 -64.5t169 -26.5q56 -2 93 -1q47 0 65 2q32 5 94 37q40 21 61 21q11 0 17 -6 q7 -7 7 -15q0 -25 -70 -57q-127 -60 -273 -60q-23 0 -47 1q-225 12 -280 180q-15 45 -15 67v7z" />
<glyph unicode="d" horiz-adv-x="831" d="M20 191q4 73 74 180q66 94 158 162.5t192 95.5l68 16l12 146q8 127 24.5 180t57.5 89q36 32 72 32h9q40 -4 70.5 -30t44.5 -77q8 -27 9 -60q0 -30 -7 -66q-13 -75 -55 -205t-78 -202q-36 -74 -41 -98q-1 -6 -1 -14q0 -24 11 -66q15 -56 53 -112t77 -69q37 -12 37 -28 q0 -18 -43 -18q-41 0 -89 40t-77 97l-37 72l-76 -80q-135 -141 -288 -156q-16 -1 -28 -1q-25 1 -37 5q-20 8 -50 35q-62 55 -62 123v9zM81 199q0 -36 29 -66q30 -31 47 -35q7 -2 18 -1q17 0 46 3q123 18 260 197q45 57 55 81q6 15 6 40q0 13 -2 30q-5 47 -22.5 72t-46.5 26 h-4q-45 0 -123 -42q-141 -78 -223 -205q-40 -62 -40 -100zM595 744q-2 -45 -2 -80q0 -117 23 -125h1q9 -1 42 79q35 84 61 192q16 68 16 109q0 24 -6 39q-15 40 -43 45q-4 1 -7 1q-24 0 -48 -30q-28 -34 -37 -230z" />
<glyph unicode="e" horiz-adv-x="735" d="M24 446q-2 3 -2 6q0 19 48 64q56 53 82.5 93t104 98.5t110.5 64.5q49 9 88 9q133 0 133 -111q0 -74 -55.5 -138.5t-128.5 -101.5q-74 -38 -142 -56q-52 -14 -83 -13q-10 0 -18 1q-32 6 -38 0t-6 -38q0 -100 176 -160q61 -20 97 -24q8 -1 19 0q41 0 129 10q112 13 133 31 q21 17 39 1q4 -4 4 -8q0 -15 -44 -37q-24 -12 -86 -39q-53 -23 -156 -23q-17 1 -35 1q-129 4 -209 45t-106.5 78t-27.5 100t-11 100t-15 47zM156 469q13 -13 41 -13q39 0 105 25q114 43 156 93q43 51 43 85q0 33 -34 41q-27 8 -48 8q-9 0 -19 -2q-26 -6 -89 -47.5 t-119 -106.5q-41 -48 -41 -71q0 -7 5 -12z" />
<glyph unicode="f" horiz-adv-x="808" d="M20 446q-2 18 16.5 36.5t30 18t15.5 -7t32 -12.5q22 -5 51 -5q10 0 21 1l80 4l2 137q4 182 49.5 290t143.5 171q47 31 73 37q15 4 40 4q17 0 39 -2q54 -4 81 -14t51 -33q43 -41 43 -83q0 -47 -53 -95q-54 -52 -71 -52q-5 0 -7 3q-1 1 -1 3q0 14 34 56q24 31 24 57 q0 16 -8 31q-24 39 -114 53q-12 2 -23 2q-77 0 -144 -83q-77 -95 -86 -230q-4 -53 -4 -93q0 -62 9 -92q14 -50 55 -56q7 -1 17 -1q39 0 109 14q87 17 96.5 31.5t38 10.5t36.5 -24t-8 -38t-89 -41.5t-157 -37.5l-73 -13v-243q0 -158 -4.5 -208.5t-28.5 -85.5q-18 -26 -31 -26 q-4 0 -8 2q-12 7 -12 56q0 18 2 42q4 58 4 155q0 48 -1 106q-3 174 -17.5 187t-108.5 17q-135 2 -144 51z" />
<glyph unicode="g" horiz-adv-x="729" d="M37 113q14 39 40.5 35.5t22.5 -42.5q-3 -27 -3 -52q0 -204 200 -236q19 -3 38 -3q78 0 155 45q98 56 122 142q18 63 18 136q0 95 -31 205q-78 280 -87.5 280t-75.5 -46q-61 -43 -137 -43h-10q-82 3 -113 60q-19 37 -19 82q0 69 47 156q77 143 220 221q39 23 98 25 q7 1 15 1q47 0 73 -14q30 -15 30 -114v-7q-1 -104 -32 -180l-28 -72l104 -395q24 -81 24 -127q0 -45 -18 -152q-16 -102 -28.5 -124.5t-61.5 -60.5t-114.5 -64.5t-121.5 -29.5q-11 -1 -23 -1q-44 0 -86 9q-54 11 -94 39t-74 62.5t-48 79.5q-18 58 -18 105q0 45 16 80z M224 724q-2 -20 -2 -38q0 -49 24 -72q21 -21 53 -21q18 0 39 7q59 18 121 84q33 33 40 54q5 17 5 57v24q0 59 6 79t30.5 39t33.5 29q16 17 16 24q0 2 -2 3q-27 16 -59 16q-46 0 -104 -34q-97 -57 -143 -114.5t-58 -136.5z" />
<glyph unicode="h" horiz-adv-x="880" d="M28 354q15 268 49 454q57 309 81 359q14 25 30 25q14 0 29 -18q6 -8 6 -20q-1 -21 -17 -58q-26 -58 -65 -329t-41 -431q2 -66 17 -66q18 6 94 139.5t150.5 224.5t105.5 91q51 0 96 -107q23 -53 23 -221t15 -217t67 -76q44 -23 69 -23q3 1 7 1q26 4 71 36t45 11 q-2 -25 -43 -59q-67 -60 -128 -60q-11 0 -21 2q-70 12 -115 99q-39 76 -39 243q0 32 1 67q1 13 1 26q0 61 -12 109q-14 58 -53 58q-25 0 -55.5 -42t-94 -151.5t-100.5 -164t-59.5 -94t-35 -60t-25.5 -38.5q-24 -32 -52 2q-8 10 -8 87q0 71 7 201z" />
<glyph unicode="i" horiz-adv-x="239" d="M22 475q3 35 28.5 110t44 97.5t36.5 -10.5q13 -20 13 -43q0 -30 -21 -66q-17 -35 -19 -117q0 -6 -1 -12q-1 -74 17 -122q18 -52 58.5 -56t40.5 -23q1 -25 -25 -40q-20 -12 -45 -12q-7 0 -14 1q-80 10 -108 207q-6 37 -6 66q0 10 1 20zM64 1032q18 32 62 57q42 24 65 24 q19 0 24 -17q1 -2 1 -4q0 -18 -46 -58q-47 -41 -73 -41h-5q-32 4 -32 22q-1 8 4 17z" />
<glyph unicode="j" horiz-adv-x="624" d="M22 58q13 73 32.5 125.5t35.5 62.5q33 20 33 -15q0 -20 -10 -47q-23 -55 -23 -123q0 -42 8 -89q23 -124 88 -185q33 -31 55.5 -40t64.5 -9t64.5 10t63.5 51q78 74 92 156q4 22 4 49q0 72 -28 176q-74 274 -74 322.5t-11 74t-14.5 32.5t11.5 34q14 16 21 16t29 -19.5 t29 -100t41.5 -206.5t55.5 -208q14 -50 14 -107q0 -37 -6 -78q-14 -102 -84 -190q-76 -95 -193 -95q-22 0 -45 3q-43 6 -70.5 21.5t-85 71t-84.5 145.5q-18 61 -18 114q0 25 4 48zM399 970.5q0 22.5 45 70t74 57.5q21 8 33 8q18 0 18 -16q0 -6 -2 -13q-6 -20 -43 -75.5 t-60 -71.5q-10 -9 -21 -9t-23 9q-21 18 -21 40.5z" />
<glyph unicode="k" horiz-adv-x="899" d="M23 254q-3 26 -3 68q0 74 8 196q12 190 60.5 422t85.5 277q20 25 44 20.5t22 -52.5t-26 -75t-24 -55.5t-28 -133t-44 -225.5q-19 -143 -19 -217q0 -64 14 -78q12 0 75 110t136 164t172.5 77.5t124 24.5t39.5 -16t10.5 -32.5t-32.5 -38t-62.5 -43t-80.5 -49.5t-87 -58 q-99 -68 -144 -153q-17 -35 6 -55q14 -16 36 -18h6q24 0 78 10q62 10 186 17q74 4 115 4q51 0 53 -6q1 -4 -7 -17q-12 -14 -64 -26q-226 -50 -335 -50q-14 0 -25 1q-106 7 -115 21t-26 15q-20 0 -68 -121q-6 -19 -13.5 -19t-33.5 19q-27 18 -34 92zM350 600q-2 -8 12 -8 t68.5 32t54.5 42q0 13 -12 13q-18 0 -65 -30q-57 -29 -58 -49zM846 1583q-5 4 -5 10q0 7 5 15q6 11 15 10q4 0 9 -3q7 -4 7 -10.5t-7 -14.5q-9 -10 -17 -10q-4 0 -7 3z" />
<glyph unicode="l" horiz-adv-x="221" d="M29 193q23 151 66.5 498.5t46.5 360.5q3 12 24 12h3q24 0 31 -20q2 -4 2 -21q0 -55 -18 -239q-24 -240 -45.5 -365.5t-21.5 -239t-4 -130t-33 -16.5q-59 0 -59 86q0 31 8 74z" />
<glyph unicode="m" horiz-adv-x="946" d="M20 175q7 71 13 114t16 103.5t16 108t17.5 90t19.5 57.5q21 34 21 60t16.5 38t29.5 -2q5 -5 5 -21q0 -28 -14 -91q-22 -98 -44 -234q-16 -105 -15 -134q0 -8 1 -10q3 -2 6 -2q32 0 119 207q61 147 105.5 210.5t63 78t47 14.5t37.5 -12q8 -12 24 -72q9 -34 9 -81 q0 -37 -5 -83q-4 -39 -4 -61q0 -33 9 -34q1 0 3 1q8 2 20.5 30t77 127t82.5 133t53 70q77 78 99 78q8 0 38 -33t35 -61q4 -23 4 -92v-29q-1 -94 -9.5 -167t-26 -171t-24.5 -158.5t-15 -77t-33 -20.5q-4 -1 -8 -1q-19 0 -30 18q-13 22 0 39.5t19.5 57.5t16.5 121q9 80 27 166 q15 73 15 167v32q-3 113 -26 113q-16 0 -31.5 -24.5t-23.5 -37t-21.5 -35t-47 -73.5t-129.5 -228t-113.5 -186.5t-36.5 8.5q-20 20 -20 80q0 72 28 201q10 53 10 102q0 12 -1 25q-3 61 -21 68h-1q-13 0 -54 -77q-43 -81 -77 -169.5t-108.5 -215t-93 -139t-45.5 10.5 q-26 26 -26 79q0 11 1 24z" />
<glyph unicode="n" horiz-adv-x="643" d="M25 23q-4 18 -4 60q0 59 8 167q31 409 75 409q18 1 20 -39v-13q0 -47 -9 -175q-5 -78 -5 -116q0 -33 4 -33q9 0 50 83q132 267 182 314q51 43 99 43q11 0 21 -2q58 -12 96 -89t54 -239q8 -87 7 -165q1 -68 -5 -130q-14 -133 -51 -133q-18 0 -23 13.5t-1 60.5q5 108 5 197 q0 317 -69 397l-35 41l-51 -51q-47 -47 -138 -247t-114 -230q-22 -29 -22 -46t-42 -68q-23 -28 -36 -28q-11 0 -16 19z" />
<glyph unicode="o" horiz-adv-x="673" d="M23 312q-2 12 -2 32q1 24 3 58q6 66 32 119.5t90 121.5q57 60 57 79q0 3 -1 4q-9 15 11 36.5t48 21.5t45.5 14.5t71.5 14.5t143 -58.5t114 -115.5q19 -44 19 -101q0 -17 -2 -35q-8 -79 -35 -150.5t-76 -128t-105 -74.5q-57 -19 -116 -19q-51 1 -104 15q-114 30 -165 108 q-23 34 -28 58zM79 383q-1 -7 0 -15q0 -67 58 -124q31 -29 55.5 -36t100.5 -10q23 -1 41 -1q42 0 56 5q22 7 73 52q99 86 113 228q2 19 2 38q0 114 -74 166q-28 20 -56 24q-5 1 -9 0q-20 0 -29 -14q-10 -16 -58 -16q-47 0 -110.5 -44t-109.5 -110.5t-53 -142.5z" />
<glyph unicode="p" horiz-adv-x="716" d="M20 213q6 33 24.5 36t30 -26t40 -45t43.5 -2q8 8 8 234t4 265.5t29 55.5q32 23 72 23q45 0 100 -29q59 -29 173.5 -138.5t134.5 -155.5q18 -41 18 -92q0 -6 -1 -13q-2 -58 -26 -84q-68 -80 -371 -164q-27 -8 -32 -28.5t-5 -125t-5 -136.5t-19 -42q-12 -7 -21 -7 q-22 0 -31 38q-10 39 -16 143l-8 158l-56 28q-51 27 -70 50q-17 20 -17 46q0 5 1 11zM247 654q-4 -7 -4 -66q0 -65 5 -194q10 -244 20 -251q4 -2 12 -2q35 0 144 39q135 49 168 79q31 28 31 78v6q-2 54 -39 102t-107.5 113t-111.5 84t-75 22q-7 1 -12 1q-24 0 -31 -11z" />
<glyph unicode="q" horiz-adv-x="671" d="M20 311q1 218 302 363q106 51 172 52h4q64 0 104 -40q41 -41 47 -60q3 -9 3 -26.5t-3 -42.5q-6 -51 -25.5 -97t-36 -84t-29.5 -176q-11 -119 -11 -298v-56v-31q0 -186 -23 -192h-2q-10 0 -30 21q-32 32 -32 183q0 80 9 193q6 78 6 123q0 52 -8 61q-4 3 -12 3 q-25 0 -91 -33q-83 -42 -152 -42q-86 0 -151 63q-27 27 -34 48t-7 68zM86 281q20 -80 103 -95q13 -3 26 -3q73 0 163 73q105 86 118 180q10 60 30 128q16 53 16 71q0 5 -1 7q-5 8 -51 8h-10q-56 -1 -89 -15q-119 -47 -174 -86t-103 -113q-34 -53 -34 -108q0 -23 6 -47z" />
<glyph unicode="r" horiz-adv-x="774" d="M23 314q0 81 15 213t30 132q8 0 24 -14q28 -25 49 -10.5t37 29.5q49 42 122 70q42 16 113 16q51 0 119 -8q160 -20 201 -62q22 -22 22 -33t-18 -14q-5 -1 -11 -1q-21 0 -52 11q-126 44 -217 44h-19q-96 -5 -169.5 -54t-98.5 -72.5t-37 -64.5q-9 -31 -9 -65q0 -11 1 -23 q4 -48 22 -156q9 -52 9 -82q0 -32 -10 -38q-14 -9 -24 -9q-4 0 -8 1q-12 5 -40 42q-51 55 -51 148z" />
<glyph unicode="s" horiz-adv-x="684" d="M23 211q-2 6 -2 14q-1 25 19 65q26 52 55.5 61t43 -8t-9.5 -42q-24 -26 -24 -50q0 -49 106 -85q34 -10 67 -11q18 0 36 4q50 9 131.5 50t113 67.5t31.5 52.5t-26.5 42t-136.5 50t-187.5 107.5t-77.5 159.5q0 43 53.5 96.5t110.5 69.5q65 26 89.5 29.5t57.5 7.5q13 1 26 1 q51 0 119 -20q37 -8 42.5 -44t-11 -49t-41.5 9q-30 27 -96 27q-33 -1 -75 -7q-126 -20 -185 -74q-30 -27 -30 -59t30 -69q59 -74 184 -114t176.5 -74.5t51.5 -75.5t-10 -66q-8 -26 -74 -68q-55 -36 -74 -35q-4 0 -6 1q-14 8 -43 -28q-29 -34 -127 -48q-31 -4 -60 -5 q-66 1 -132 21q-95 30 -115 97z" />
<glyph unicode="t" horiz-adv-x="1054" d="M20 674q0 14 6.5 20t18.5 3t163.5 -10t169 -13t29 11t19.5 52t14 73t15.5 79t27 72.5t17.5 53t6 45.5q15 60 36 60q3 0 7 -2q13 -4 13 -45q0 -77 -46 -285q-11 -49 -11 -81.5t11 -49.5q12 -8 144.5 -14t254 -12t119.5 -17q-4 -14 -118 -25q-146 -14 -248 -14h-117 q-38 0 -63 -18q-15 -11 -17 -51q-4 -78 -7 -171t-21.5 -115.5t-30.5 -23.5h-1q-11 0 -33 16q-23 17 -24.5 24.5t16 28t24.5 159.5q2 49 2 82q0 62 -8 70q-13 14 -106 23q-262 26 -262 75z" />
<glyph unicode="u" horiz-adv-x="737" d="M21 318q-1 17 -1 31q0 86 20 117q23 36 23 58t44.5 119.5t44.5 105.5t16 43t29 35q25 0 25 -33.5t-25 -88.5q-102 -231 -113 -373q-3 -34 -3 -60q0 -42 8 -61q13 -31 58.5 -31t93.5 34t127 118t102.5 119.5t35.5 89.5t56 144.5t74 118.5q25 23 45 23q4 -1 7 -1 q22 -6 26 -26q2 -8 2 -18q0 -16 -4 -36q-7 -34 -22 -77q-33 -87 -98 -182q-29 -41 -29 -89q-1 -20 5 -42q18 -72 88 -135q50 -45 50 -67q0 -9 -8 -13q-12 -6 -43 2q-76 18 -133 133l-35 68l-73 -72q-74 -70 -152 -118t-120 -48t-73 23.5t-37.5 50t-10.5 138.5z" />
<glyph unicode="v" horiz-adv-x="727" d="M22 790q6 16 23.5 16.5t61 -80.5t85.5 -226q76 -260 99 -260q12 0 126.5 220t114.5 235t35 71l60 96q25 39 39 39q20 0 32 -39q9 -30 10 -65q0 -11 -1 -23q-4 -49 -10.5 -59t-30.5 -8q-25 2 -38.5 -12.5t-39.5 -69.5l-107 -226q-68 -140 -68 -150q1 -9 -15 -31t-42 -53.5 t-39 -51.5q-10 -20 -27 -20q-6 0 -12 3q-26 10 -38 42t-34 80q-41 90 -52.5 154t-43.5 162.5t-54 140.5q-24 43 -32 71q-5 16 -4 28q-1 9 2 16z" />
<glyph unicode="w" horiz-adv-x="905" d="M26 741q-8 12 -8 27q0 23 18 51q15 24 33 24q17 0 35 -22q8 -9 8 -55q0 -51 -10 -148q-8 -78 -8 -142q0 -88 14 -154q24 -113 85 -113q45 0 100 93t65 175.5t19.5 98.5t39.5 16q39 0 40 -55q-1 -28 -11 -69q-28 -118 -28 -148q0 -28 36 -67q34 -38 50 -46t54 -1 t103.5 69.5t101.5 133.5t45 153q3 24 3 45q1 51 -15 91q-22 56 -68 56t-46 28q2 29 43 41q14 4 35 4t38 -13t45 -57t35 -74t7 -110.5t-20.5 -141t-84.5 -148.5q-96 -133 -200 -156q-20 -4 -38 -4q-80 0 -141 80l-30 37l-76 -60q-68 -53 -105.5 -53t-82.5 53q-45 52 -70 190 q-15 83 -15 153q0 46 6 86q8 46 8 78q1 37 -10 54zM150 1418q0 14 14 14h2q12 0 12 -8t-14 -14q-4 -1 -7 -1q-7 0 -7 9z" />
<glyph unicode="x" horiz-adv-x="667" d="M26 136q18 34 34 58q55 83 99 159.5t49 80.5t8 22.5t3 21.5t-8 27.5t-15.5 37t-48.5 95.5t-41 94q0 10 -36 72q-31 53 -32 74q0 4 1 6q6 18 22 17.5t65.5 -72t95.5 -167.5t56.5 -103.5t27.5 13.5q91 114 167 188q101 97 144 97q20 0 28 -21q2 -5 2 -11q1 -17 -17 -40 q-24 -31 -42 -31t-125 -113t-122 -141q-4 -6 -4 -15q0 -30 38 -87q49 -75 75 -139q20 -49 21 -74q0 -8 -2 -13q-8 -23 -22 -23q-19 0 -48 44q-8 14 -20 36q-82 170 -101.5 170t-44 -49t-24.5 -89t-74 -121q-60 -66 -86 -66q-6 0 -10 4q-20 15 -20 34q1 12 7 24z" />
<glyph unicode="y" horiz-adv-x="776" d="M24 -38q5 13 35.5 40t107.5 52q49 15 72 15q13 0 18 -5q3 -3 3 -7q0 -17 -72 -45q-80 -37 -80 -62.5t80 -39.5q23 -4 46 -4q52 0 102 20q72 27 116 84t62 113.5t28 144.5q4 39 4 62q0 32 -8 38q-12 11 -51 -17.5t-59 -33t-62 2.5t-67 31t-47 87q-11 36 -11 100 q0 52 7 124q18 159 51 159q19 0 19 -83v-9q-1 -92 -6 -182q-1 -13 -1 -25q0 -71 25 -106q24 -27 50 -27q7 0 14 2q34 10 105 78t92 110t31.5 141.5t26.5 117.5q16 20 31 20q17 0 31 -26q19 -35 19 -78q0 -18 -4 -37q-4 -26 -4 -41q0 -24 10 -24q18 -1 18 -15t-27 -14 t-58.5 -93.5t-47.5 -224.5q-44 -386 -235 -449q-58 -20 -158.5 -20t-146.5 20.5t-55 56.5q-6 23 -6 37q0 7 2 12z" />
<glyph unicode="z" horiz-adv-x="731" d="M21 104q0 20 26 52q29 36 116 123.5t132 137.5t117 117q155 145 155 163v2q-5 8 -60 8q-29 0 -73 -2q-70 -5 -127 -5q-152 0 -211 35q-20 12 -20 26q0 15 22 32q25 18 60 20h8q28 0 36 -13q6 -11 121 -11q46 0 109 2l221 4l17 -35q7 -15 6 -30q0 -27 -20 -56 q-32 -45 -173 -168t-141 -133t-81 -102.5t-81 -100.5q11 -8 52 -8q32 0 81 5q113 11 250 25q107 11 135 12q8 0 9 -1q5 -5 5 -10q0 -16 -48 -35q-150 -59 -445 -80q-79 -8 -126 -8q-34 0 -51 4q-21 5 -21 30z" />
<glyph unicode="{" horiz-adv-x="722" d="M29 674q25 25 45 19.5t53 -20t62.5 -28.5t70.5 -8t82 43t43 97.5t-21 111.5q-69 158 -69 194q0 70 83 185.5t148.5 145.5t85 30t62.5 -33t26.5 -73t-63.5 -15q-2 2 -6 4q-74 47 -205 -143q-78 -113 6 -259.5t31 -252.5q-20 -41 -69.5 -88t-78.5 -54q-29 -6 -22 -26 q18 -63 9 -106.5t-58 -136.5t-65.5 -138t-18.5 -98l-6 -88l59 -29q57 -29 142 -30t99.5 -32t-36.5 -47q-14 -4 -53 -10t-118 19.5t-127 68.5t-54.5 60.5t0.5 78.5q18 180 58 240q81 120 81 195q0 23 -16.5 41t-61.5 47q-137 88 -98 135z" />
<glyph unicode="|" horiz-adv-x="241" d="M21 1183q0 44 18.5 65.5t34.5 21.5q33 0 43 -43t10 -171.5t15.5 -275.5t33 -269t32.5 -233q32 -239 -11 -266q-25 -14 -48.5 7.5t-27.5 40t2 63.5t-8.5 164t-40 324.5t-39.5 366.5t-14 205z" />
<glyph unicode="}" horiz-adv-x="681" d="M25 -168q-24 67 109.5 94t203.5 97.5t57 162.5q-8 43 -37.5 106.5t-38 119t-2 73t39 50.5t66.5 56t33 32.5t-23.5 33t-45.5 47.5q-47 50 -37 91q43 184 99.5 254.5t78 103.5t32.5 60.5t-2 42.5q-21 23 -103.5 44t-110 21t-72 -17t-53.5 -10q-12 14 -8 38t22 44 q35 39 166 20.5t215 -71.5q57 -39 44 -107.5t-112.5 -195.5t-99.5 -240q0 -25 11.5 -41t57.5 -45.5t85 -73.5t35 -69t-86 -43t-107.5 -38.5t-25.5 -71t32.5 -106.5t38.5 -120q8 -111 -67.5 -199t-227 -137t-167.5 -6z" />
<glyph unicode="~" horiz-adv-x="964" d="M20 612q-4 25 61.5 91.5t87 66.5t97.5 37t103 37t81 -45t54 -66q0 -20 55 -65.5t76.5 -52.5t61.5 0t77 37t49 78t46 64.5t63 -20.5q12 -14 12 -27.5t-14 -41.5l-43 -89q-12 -27 -32.5 -42t-65 -33.5t-62 -27.5t-69.5 -9t-102 37t-81 81q-82 117 -125 117q-29 0 -45 -14 t-34.5 -14t-121.5 -75t-124 -36q-2 4 -5 12z" />
<glyph unicode="&#xa2;" horiz-adv-x="659" d="M21.5 515q3.5 75 33 124t107.5 123t152.5 123t92 71.5t44 113.5t57.5 134t45 16.5t-8 -87.5q-23 -61 -27 -109.5t3 -61t43 -23.5t57.5 -36.5t14.5 -46t-87 -20.5h-80l-39 -158q-57 -233 -68.5 -292.5t3.5 -72.5q14 -12 67 -0.5t101.5 33.5t77 19t28.5 -23t-105.5 -66.5 t-175.5 -54.5q-25 -4 -32 -20.5t-15 -87.5q-18 -168 -78 -168q-45 0 -29 81q7 35 16 73q24 100 17 117t-48.5 28.5t-84.5 52.5t-64.5 92t-18 126zM96.5 478q-0.5 -79 59 -129t84 -32t44 112.5t45 187t39 138.5t9.5 50q-12 6 -100.5 -61.5t-122.5 -110.5q-57 -76 -57.5 -155z " />
<glyph unicode="&#xa3;" horiz-adv-x="864" d="M20 292q0 28 39 82t69 69t47.5 13.5t73 -29.5t62 -21.5t8.5 131.5l3 122l-95 -6q-66 -4 -86 1t-45 32q-55 57 13 64q18 2 92.5 -2t103.5 6t34 26.5t5 106.5t29.5 172t99.5 163.5t112 107.5t89 28t74 -17q68 -51 89 -128.5t-22 -120.5q-63 -63 -67 45q-4 94 -53.5 101 t-122.5 -60q-140 -128 -140 -314v-80h111q90 0 152.5 -19.5t62.5 -45.5q0 -47 -68 -23q-43 14 -153 2l-111 -10l-10 -170q-10 -168 4 -185t74 -17q98 -1 159 14q12 2 17.5 -4.5t5.5 -20.5q0 -29 -66 -61q-49 -27 -85 -26t-93 28q-25 10 -42 1t-71 -63q-119 -119 -180 -82 q-27 16 -73 89t-46 101zM124 291q1 -35 28 -60t44 -20.5t49 38.5t35.5 45t-15 28.5t-56 24.5t-62 -7t-23.5 -49z" />
<glyph unicode="&#xa7;" horiz-adv-x="710" d="M28.5 -157.5q-18.5 24.5 8.5 55.5t45 30.5t45 -28.5q49 -55 125 -68.5t110 25.5q47 51 7 225q-10 43 -30 70.5t-86.5 86t-89 114t-1 121.5t47.5 104.5t99.5 78t111.5 39.5t38 7.5t-71 93t-90 178t9 182.5t54 118t77.5 54t58.5 26.5t56 -20.5t87 -64.5t41 -83.5t-2 -48.5 t-31 -8.5t-40 17.5t-29.5 43.5t-41.5 38q-55 27 -103.5 -38t-48.5 -147.5t34 -139t130 -163t110.5 -134t20.5 -101.5l10 -98l-72 -68q-66 -63 -189 -114q-30 -13 -30 -20t30 -52t30 -87t19 -108.5t12 -95.5t-58 -84q-37 -37 -57.5 -46t-79 -9t-153.5 47t-113.5 71.5z M266 411.5q-4 -51.5 31 -75t64.5 -22.5t94.5 30t93 67t24 95l-4 63l-67 2q-82 4 -118 -8t-75 -56t-43 -95.5z" />
<glyph unicode="&#xab;" horiz-adv-x="925" d="M20.5 466q0.5 30 49.5 63t160 130q295 256 311 256q53 2 7 -71.5t-128 -138t-164 -140.5l-84 -76l33 -40q16 -23 69 -67q129 -109 133.5 -138t-10 -53.5t-28.5 -24.5t-96.5 93.5t-111 116.5t-72.5 32.5t-56.5 18.5t-12 39zM426 505q0 13 59 50t155 134t148 167.5t73.5 80 t41.5 -23.5q29 -45 -207 -284l-127 -131l64 -58q35 -29 112.5 -87.5t81.5 -80.5t-22.5 -34t-39.5 -8.5t-56 44.5t-110 91.5t-81 50.5t-53 38t-39 51z" />
<glyph unicode="&#xad;" d="M23 570.5q-6 25.5 3 34.5t229 8t271.5 -6t63.5 -23.5t-4 -37.5t-62.5 -23.5t-248.5 -2.5t-228 17q-18 8 -24 33.5z" />
<glyph unicode="&#xbb;" horiz-adv-x="788" d="M20 952q16 41 52 15q33 -27 32 -76q0 -29 92.5 -111t146 -135t69.5 -53t31 -32t1 -53.5t-98 -96.5q-119 -109 -154 -159t-46 -57.5t-30 2t-30.5 21.5t-11.5 25q0 28 90 119t116.5 125t26.5 68t-25.5 58.5t-81.5 63.5t-82 68.5t-66 108.5t-32 99zM356.5 904.5 q-9.5 44.5 7.5 60.5t44.5 6t31.5 -33q10 -59 63.5 -129t112.5 -120q152 -130 152 -173q0 -29 -47 -90t-143.5 -165t-121 -122t-48.5 -12q-68 16 10 104q20 25 97.5 102.5t115.5 131.5l39 57l-80 76q-84 77 -127 139t-70 92.5t-36.5 75z" />
<glyph unicode="&#xbf;" horiz-adv-x="598" d="M41 176q23 72 62.5 105.5t152.5 69.5t144.5 59.5t31.5 65.5t-9 83t-17 67q-26 75 -5 91q51 59 80 -21q10 -29 22.5 -141t12.5 -145t-22.5 -58t-72.5 -47t-84 -22t-97 -27t-91 -72t-35 -111.5t-1 -88t32.5 -53.5t47 -39t96.5 -7t129 23.5t64 60.5t50 33t46 -41 q4 -31 -34 -69.5t-101.5 -66.5t-134 -39t-139.5 18.5t-110 103.5q-63 113 -18 268zM449 999q43 45 79.5 31t36.5 -69.5t-28 -90.5l-29 -34l-43 30q-84 61 -16 133z" />
<glyph unicode="&#xc0;" horiz-adv-x="1132" d="M23 229q-16 45 112 127q80 51 358.5 335t315.5 351q12 20 53 108.5t79 155t71 94.5t47 30t35.5 -21.5t16.5 -43t-46 -99.5t-90 -147.5t-69 -100.5q-49 -83 -79 -391q-14 -127 -9 -176.5t28.5 -77t18.5 -52t-29.5 -24.5t-57.5 45t-47 98t-23.5 61.5t-46.5 5.5t-72.5 -10.5 t-55 -11.5t-39 -4t-31.5 11q-12 10 -34.5 -4.5t-84.5 -73.5q-287 -274 -321 -185zM520 590q-4 -6 24 -9q54 -6 142 9q31 6 40.5 23.5t23.5 113t7 103t-63.5 -46.5t-113 -115.5t-60.5 -77.5zM891 1629q2 9 36 6t65.5 -54t21.5 -82q-12 -29 -45 -20.5t-37 41.5 q-4 34 -13.5 49.5t-19.5 33t-8 26.5z" />
<glyph unicode="&#xc1;" horiz-adv-x="763" d="M21 324.5q-7 25.5 10.5 36.5t115 161t126 207t83.5 143q119 189 129 256.5t24.5 91t47.5 17.5q29 0 29 -36q0 -11 -1 -31.5t-2 -45t-2 -63.5t0 -83q2 -87 15 -239l20 -198l68 -9q59 -6 60 -20t-56 -23l-57 -8l6 -135q4 -94 0 -116.5t-25.5 -33.5t-34 -11.5t-19.5 13.5 q-13 27 -9 84.5t1 81t-2 40t-7.5 28.5t-12.5 19.5t-17 12.5t-24.5 8t-33 5t-41.5 4q-54 5 -104 14t-65.5 -2.5t-69.5 -95.5t-71.5 -98t-45.5 -7t-35 32.5zM323.5 599q10.5 -17 89.5 -27.5t94 3.5t10 60.5t-8 80.5t-6 53t-5 44t-5.5 38t-5.5 27q-3 23 -13.5 23t-45.5 -63 l-76 -150q-39 -72 -28.5 -89zM480 1507q-3 92 1 111.5t27 19.5t32 -27.5t13 -115.5t0 -101.5t-31.5 -13.5t-33 17.5t-8.5 109.5z" />
<glyph unicode="&#xc2;" horiz-adv-x="1093" d="M21.5 307q-3.5 8 5 20.5t21.5 26.5q38 39 69 100.5t63.5 101.5t50.5 71t55 88q86 131 103 172q2 4 117 185t114.5 214t23.5 60t34 26.5t34.5 -17.5t24.5 -31.5t-20.5 -82.5t-28.5 -214t1 -240.5t16.5 -111t37 -16.5t31.5 -13t-29 -28.5t-37 -23.5q-19 -25 19 -174 q20 -82 -10.5 -103.5t-85.5 37.5q-31 31 -33 42.5t20.5 50t10.5 75.5t-33 44t-130.5 15.5t-131.5 5.5q-45 -6 -109 -132q-25 -49 -79 -118t-66 -69t-33.5 15.5t-25 23.5zM385 696q0 -45 166 -45h57l-4 193q-4 190 -8 190q-16 0 -104.5 -149.5t-97.5 -155.5t-9 -33z M593.5 1507.5q9.5 14.5 63.5 57.5t83.5 57t68.5 15t39 -13q-2 -18 -86 -85.5t-111.5 -78t-47 11t-10 36zM930 1638h45q43 0 43 -19.5t29 -56t24.5 -61t-33.5 -24.5t-44 18.5t-40 79.5z" />
<glyph unicode="&#xc4;" horiz-adv-x="786" d="M22 254q5 16 46.5 69.5t222 402.5t180.5 372t26 38t39 14t53 -17.5t47 -25.5t-5 -33q-25 -49 12 -283q18 -127 32.5 -163t44.5 -36t36 -10t5 -13.5t-9 -7.5q-19 -10 -56 -20q-14 -4 1.5 -71t39.5 -112t29 -102q8 -110 -58 -52q-30 27 -30 53t-22.5 78t-39 114.5t-31 81 t-153.5 18.5h-137l-59 -127q-45 -96 -96.5 -169t-74 -73t-36.5 35q-12 23 -7 39zM311 1362q-45 45 29 106q45 37 60.5 37t19.5 -12q10 -29 -18 -82t-47 -63.5t-44 14.5zM360.5 638q7.5 -15 102 -16t101.5 10t-9 160.5t-27 159.5q-4 4 -24.5 -23.5t-46 -72.5t-49.5 -92 q-55 -111 -47.5 -126zM428 1262q0 39 21 8q8 -12 -7 -23q-14 -5 -14 15zM644.5 1442q31.5 41 58.5 32t20 -51q-8 -86 -59 -54t-19.5 73z" />
<glyph unicode="&#xc7;" horiz-adv-x="1120" d="M21 570q2 96 22 141q59 127 168 227.5t241 153.5t250.5 40.5t146.5 -72.5t-4 -84t-79 23t-142.5 45t-213.5 -57q-61 -29 -166 -130t-126 -153.5t-23.5 -136.5t15 -147.5t83 -120.5t139.5 -72.5t217 5t188 53.5q10 6 117 64.5t160 99t67 40.5q35 0 14 -37t-65.5 -72.5 t-147 -96t-138.5 -69.5t-55.5 -24t-147 -35t-176.5 -14q-121 16 -210 89t-118 178q-18 66 -16 162zM281 -216.5q0 23.5 10 29t43 2.5t48 4t32 31q16 25 18 41t-8 43q-25 66 4 68t47 -38t18.5 -85t-29.5 -93t-67 -57.5t-76.5 11t-39.5 44z" />
<glyph unicode="&#xc8;" horiz-adv-x="1024" d="M22.5 335.5q-4.5 22.5 3 64.5t58.5 201t70 190q8 16 50 195t62 204q14 14 104.5 12t172.5 -21t401 5q61 4 57 -25q-4 -37 -88.5 -68.5t-184 -16.5t-236.5 24l-136 8l-30 -49q-23 -37 -41.5 -95.5t-22.5 -105.5l-2 -37l189 -8q209 -10 208 -37q0 -10 -19.5 -26t-172 -20.5 t-173 -12.5t-33.5 -4t-26.5 4t-26.5 -17.5t-50 -146.5t-31 -143t52 -18.5t163 -4.5t190.5 3t108.5 6t61.5 6.5t37.5 1.5q22 -3 38 -21q41 -39 -7 -55t-255 -26.5t-303 -10.5t-140 11t-48.5 33.5zM547 1618q0 72 164 -84q102 -98 102 -113.5t-17 -29.5t-32 -8 q-57 24 -137 119.5t-80 115.5z" />
<glyph unicode="&#xc9;" horiz-adv-x="956" d="M20 428l37 64q34 55 48 124.5t27 146.5t28.5 156t17.5 122.5t-12 114.5t-4 80t358.5 15.5t363.5 21.5t33.5 12t18.5 -19q0 -51 -102.5 -77t-326.5 -31t-228 -11q-10 -14 -14.5 -103.5t-7.5 -113.5t5 -29.5t53 -1.5t158 -14.5t129 -37.5t-14.5 -25.5t-180 -12.5 t-167.5 -25.5t-52 -158t-26 -160t86 -35.5t151 -8q317 29 359 -10q25 -27 12.5 -45.5t-65 -23.5t-237.5 -9t-281.5 9t-135.5 54zM453 1530q-4 33 46 56q28 13 45 25.5t23 16.5q15 10 70 10t55 -16q-2 -23 -87 -73t-115.5 -53t-36.5 34z" />
<glyph unicode="&#xca;" horiz-adv-x="915" d="M20 236.5q0 25.5 13.5 110t27 152.5t22.5 106t17.5 82t8.5 58.5t-7 36.5q-18 33 -14 48.5t31 25.5t42 36t32.5 77t32.5 82t30 79t27 64q14 16 20 15t20.5 -27.5t-36.5 -171t-45 -152.5t236.5 -10t236.5 -8q16 -16 -62 -41q-152 -43 -303 -39q-81 14 -108 8t-42 -30 t-22.5 -52.5t-19 -83.5t-26.5 -116.5t-15 -139.5v-76l67 -10q63 -10 211 -1t308.5 37t179.5 15q8 -4 12 -28.5t-16.5 -41.5t-218 -41t-364.5 -30t-203 -3t-54.5 23.5t-18.5 46zM102 1290q-1 33 10 44q20 20 301.5 -16t331.5 -47t50 -32q-69 -16 -369.5 -6t-311.5 17t-12 40z M399 1442q-68 41 35 84q65 26 93 62t45.5 42t66.5 4q84 -3 80 -34q-2 -13 17.5 -46.5t66.5 -72.5q82 -66 43 -76q-53 -15 -132 63q-52 52 -52 76q0 35 -39 12q-16 -8 -44 -38.5t-92.5 -60.5t-87.5 -15z" />
<glyph unicode="&#xcb;" horiz-adv-x="962" d="M23 177q6 36 59 212.5t65.5 229.5t-2 78.5t-13.5 49t20 23.5q57 0 59 127q2 55 7 71.5t33 26.5t38 35q25 66 51.5 59.5t26.5 -67.5q0 -18 22.5 -24.5t96.5 -12.5t127 -5t91.5 4t65.5 5q53 4 53 -17.5t-133 -39t-238 -9t-121 -3t-40.5 -88.5t-1.5 -93q25 -23 180.5 -26.5 t188 0.5t55.5 24q39 39 50 13.5t-15 -45.5q-4 -2 -20 -8.5t-40.5 -28t-173.5 -34.5t-199 3q-47 12 -60 5t-20.5 -14t-14.5 -26.5t-10 -35.5q-7 -38 -28 -107q-61 -215 -41 -236q10 -8 215 -14t321 -3t133 9t28.5 35t28 31t54 -36t15 -73t-89.5 -35t-174 -4t-207 -7t-199 -6 q-221 -7 -235 11q-14 10 -8 46zM406 1288q-63 8 1.5 76t123.5 84t66 -6t-78.5 -90t-112.5 -64zM742 1315.5q0 10.5 18 30.5q57 63 57 -46q0 -59 -17.5 -67t-41.5 39q-16 33 -16 43.5z" />
<glyph unicode="&#xce;" horiz-adv-x="808" d="M20 1159v74l230 16q287 18 387 18.5t108 -22.5t-6 -29t-90 -13t-103.5 -16t-66.5 -47t-39 -55.5t-55 -194t-91 -402.5t-9 -248q16 -12 73 8q125 47 125 24q0 -2 -2 -4q-6 -18 -68.5 -53t-88 -35t-54.5 -22q-47 -37 -135 -18t-84 50q2 6 13 19.5t42 6.5t47.5 12.5 t24.5 68.5q80 477 101.5 519t28.5 89t46 147.5t27 107.5t-186 3zM311 1383.5q-6 25.5 39 59.5t92.5 84t61.5 86t47 26.5t54 -54.5t43 -66.5t63 -41.5q143 -74 18 -74q-43 0 -64.5 9t-56.5 44l-53 53l-76 -75q-78 -76 -120 -76t-48 25.5z" />
<glyph unicode="&#xcf;" horiz-adv-x="776" d="M20 1059q0 29 50.5 39t175.5 8l166 -6l16 74q19 74 27 92q6 18 27.5 17t35.5 -19t11 -50t-12 -62t6.5 -51.5t74 -22.5t101 -37.5t14.5 -71.5q-22 -26 -35 -13q-33 31 -99.5 41t-76.5 5t-14.5 -23t-18.5 -74.5t-30.5 -127t-34.5 -143.5q-41 -172 -27 -181q6 -6 96 -11 q264 -13 281 -51q8 -25 -11.5 -44t-41 -9t-233.5 1t-228 13q-25 23 -83.5 37t-71.5 23.5t-13 36t25.5 29.5t117.5 -11l53 -10l39 168q14 70 30.5 133t22.5 88q17 65 19 100t-4 44t-38 12t-75 11.5t-66 13.5q-58 12 -91.5 -6.5t-51.5 -8.5q-33 18 -33 47zM242 1369.5 q0 11.5 50 66.5t70.5 65t30.5 -6t-20.5 -84t-47.5 -75t-50 7.5t-33 26zM566 1376.5q18 26.5 36.5 26.5t43 -44t14.5 -60.5t-38.5 -12.5t-48.5 27q-25 37 -7 63.5z" />
<glyph unicode="&#xd1;" horiz-adv-x="1097" d="M20 233q-4 37 15.5 66t52.5 29t40 14t-11 24.5t-23.5 15.5t-5.5 13t3 18.5t10.5 32t16.5 46.5q21 60 34.5 128t79 302.5t66.5 281t17 64.5q45 43 72 -15q16 -35 14 -77t10.5 -122.5t36 -192t74.5 -223.5t115.5 -167t75.5 -55q10 0 63 87t53 102t67 240.5t57.5 272.5 t21.5 65.5t52 -2.5t20.5 -48t-25.5 -132q-89 -406 -224 -653q-33 -59 -56 -63q-27 -5 -57 25t-97 104t-115.5 158.5t-91.5 213.5t-53.5 129t-35 -81.5t-54 -227t-127.5 -352.5q-29 -57 -64 -53q-20 4 -27 32zM342 1481q0 29 52 84t122 71.5t141 -80.5q35 -51 65 -71.5 t76 -29.5t65.5 1t78.5 72q119 121 133 43q2 -4 2 -8q4 -37 -44 -97.5t-73.5 -78t-68.5 -27.5q-141 -35 -270 115q-64 75 -78 75t-101 -72q-100 -82 -100 3z" />
<glyph unicode="&#xd3;" horiz-adv-x="978" d="M20 516q4 74 17.5 119t56.5 135t77.5 142t97 115.5t109 100.5t102.5 60q108 45 255 -21q244 -109 221 -411q-23 -332 -315 -527q-123 -82 -208 -104.5t-194.5 5.5t-167 127t-51.5 259zM93 453.5q5 -144.5 62.5 -198.5t146.5 -68.5t153 20.5l108 59q70 37 147.5 120 t110.5 156t50 161t9 143t-44 139q-20 45 -83 83t-93.5 32t-42 -3t-16.5 9t-9 11t-10 3q-117 -16 -244 -134t-188.5 -253t-56.5 -279.5zM522.5 1423.5q5.5 12.5 40.5 30.5t133.5 101t130 83t31.5 -10t-88 -112.5t-116 -120.5t-63.5 -20.5t-54.5 17t-13.5 32z" />
<glyph unicode="&#xd4;" horiz-adv-x="890" d="M20 477q2 158 47.5 293t143.5 283.5t248 218.5q80 37 126 25.5t131 -96.5t109 -142q43 -104 11.5 -253t-127.5 -290q-39 -61 -77 -97t-118 -88t-116 -67.5t-116.5 -21.5t-131 11t-83.5 63.5t-40 74t-7 86.5zM119 654.5q-53 -224.5 8 -304.5q20 -25 39.5 -31t91.5 -6 t155 42t139 103q103 110 134 181l51 115q16 35 16.5 148.5t-7 137t-52.5 68.5t-107.5 55.5t-102.5 -21.5t-68.5 -26t-52 -12.5t-78.5 -85.5q-113 -139 -166 -363.5zM317 1391.5q0 21.5 35 53.5t57.5 32t96.5 73.5t91.5 73.5t31.5 -23.5t14 -64.5t19.5 -90t44.5 -72 q18 -14 60 -22.5t72.5 -15.5t30.5 -21q0 -23 -61 -27t-84 3t-62.5 40t-68.5 96l-29 66l-69 -66q-70 -66 -99 -74.5t-54.5 4.5t-25.5 34.5zM554 1031.5q-1 11.5 10 23.5t21.5 8t4.5 -21q-10 -23 -23 -22q-12 0 -13 11.5z" />
<glyph unicode="&#xd6;" horiz-adv-x="946" d="M21.5 529.5q5.5 105.5 15.5 152.5t41 117q141 325 479 524q88 53 219 -31q82 -51 112 -115.5t36 -193.5t-16.5 -218t-77 -206t-84 -153.5t-114.5 -109.5t-154.5 -104.5t-147.5 -29.5q-145 4 -234 92q-49 51 -64.5 110.5t-10 165zM86 356l55 -55q39 -39 62.5 -48 t101.5 -12t104.5 3t84.5 45q127 82 180 154.5t104.5 208t59.5 179t8 111.5q-8 268 -100 268q-48 1 -59 19t-65.5 8t-115.5 -43q-166 -90 -291 -289q-76 -121 -100.5 -200.5t-26.5 -204.5zM450 1528q0 25 29 37q47 18 63.5 -3.5t-14.5 -62.5q-21 -31 -49.5 -13.5t-28.5 42.5z M835 1527q9 24 24 22.5t30 -27.5q31 -59 -17 -60q-25 0 -35.5 20.5t-1.5 44.5z" />
<glyph unicode="&#xd9;" horiz-adv-x="1028" d="M24 316.5q-9 44.5 11 204t51 306.5l45 209q19 102 109 312q8 25 38.5 25.5t38.5 -23.5q6 -14 -17 -76q-88 -231 -99.5 -306t-28 -156t-29 -140.5t-25 -130t-13.5 -122.5t7 -101q17 -95 103 -123q51 -18 147.5 -9t154.5 34.5t152.5 120.5t133.5 163q74 133 94.5 192.5 t21.5 137.5t-4.5 91t-40 13t-52 17.5t3 43t68.5 20.5t75 -34t33 -55.5t6 -103.5t-10.5 -114.5t-57.5 -136.5q-74 -143 -184 -267q-155 -176 -300 -201q-40 -7 -119 -7t-113 6.5t-71.5 30t-78.5 79.5t-50 100.5zM684 1634q4 4 35 4t84 -32.5t110.5 -47.5t55.5 -29.5t-76 -15 t-126 25.5t-69.5 58.5t-13.5 36.5z" />
<glyph unicode="&#xda;" horiz-adv-x="985" d="M20.5 344q-0.5 102 7 164.5t20.5 154t18 134.5t27 109.5t42.5 104.5t30.5 38t13 -19q7 -45 -17.5 -125t-45 -278.5t-11 -390t70.5 -201.5q74 -10 212 66.5t222 174.5q262 309 267 535q2 84 -11.5 103.5t-77 9.5t-57.5 26q4 33 47 58q8 4 15 6q78 20 125 -37 q96 -117 0 -375q-39 -90 -88.5 -165t-59.5 -95q-18 -43 -141 -157.5t-193 -153.5q-152 -84 -260 -80q-49 0 -88 55t-53 145.5t-14.5 192.5zM201 1069q-6 9 1 21t16 16t16.5 1t7.5 -14t-16.5 -21.5t-24.5 -2.5zM645 1211.5q-8 21.5 0 62.5t43 126t55 98t43 -15 q15 -19 5.5 -36t-17.5 -35q-27 -58 -43 -122.5t-26.5 -82t-31 -17.5t-28.5 21.5z" />
<glyph unicode="&#xdb;" horiz-adv-x="956" d="M20 586q0 123 40 267t84 229t64.5 85t20.5 -25q0 -16 -22 -75q-90 -213 -111 -414q-31 -332 172 -352q74 -6 130.5 21.5t171 133t192.5 230.5t94 236q6 47 2 65.5t-38 53t-21.5 54.5t42 10.5t58.5 -43.5t34 -55.5t-1 -84.5q-10 -115 -90 -253.5t-209 -262.5 q-338 -332 -522 -105q-61 78 -76 120t-15 165zM362 1272q0 14 85.5 109t104.5 126t35.5 54.5t35 45t32 26.5t26.5 0q28 -11 38 -78.5t46 -140.5t57.5 -118t4.5 -51q-31 -10 -72.5 43t-73.5 113.5t-38 60.5q-12 0 -100 -102.5t-152 -112.5q-29 -6 -29 25z" />
<glyph unicode="&#xdc;" horiz-adv-x="813" d="M35 702q68 313 98 347q14 14 22.5 12t30 -31t22.5 -53.5t-13.5 -48t-30.5 -65.5q-43 -107 -25 -271t37 -172q39 -14 152 123q39 45 52 73.5t15 76.5t24.5 66.5t51.5 -6.5t34 -54t-8 -37.5t-38 -58.5t-25 -64q0 -6 15 -7q16 0 85.5 98.5t101.5 162t43 106.5t15 107.5 t10.5 97.5t11.5 41q11 18 11 26t-1 9.5t-6 -4t-12 -9.5q-20 -10 -42 2q-49 27 -8.5 68t75.5 31q10 -4 18.5 -15.5t27.5 -89.5t11 -185.5t-33.5 -147.5t-35.5 -76q-25 -80 -154 -223.5t-209 -180.5t-134 -37t-75.5 8.5t-50.5 38.5q-111 121 -63 342zM235.5 400.5 q-8.5 -13.5 5 -21.5t30 0t16.5 21t-21.5 13.5t-30 -13zM297 1507q2 29 55 85.5t73.5 41t-17.5 -97.5q-27 -53 -71 -58t-40 29zM674 1474q33 35 45 66q14 41 29.5 17.5t15.5 -66.5t-5 -55.5t-34 -16.5t-49 15q-27 14 -2 40z" />
<glyph unicode="&#xdf;" horiz-adv-x="1116" d="M20 -85q0 30 31 30q61 0 161.5 110.5t149 219t60.5 182t9 130t20.5 177.5t80.5 285q20 57 63.5 107t91.5 74.5t162 24.5t161 -22q35 -18 60.5 -66.5t25.5 -97.5q0 -166 -199 -307l-43 -31l64 -37q66 -35 102.5 -81t45.5 -74.5t12 -92t-2 -95.5t-31.5 -84t-94 -119.5 t-112.5 -86.5q-94 -26 -146.5 -6.5t-77 34.5t-55.5 34.5t-49 28.5q-53 20 -16 88q14 29 78 28.5t62 -38.5q-1 -15 14.5 -38.5t52 -43t53 -20.5t51.5 15q82 33 145.5 142.5t50 185.5t-55.5 109.5t-169 70.5t-143 63t6.5 48t67.5 22q106 0 190 88q167 177 84 281 q-18 23 -36.5 26t-80.5 -5q-143 -16 -213 -111q-43 -57 -82 -196.5t-49 -275.5t-40.5 -243.5t-30.5 -120.5q0 -47 -127 -190t-191 -168q-37 -14 -74 1t-37 45z" />
<glyph unicode="&#xe0;" horiz-adv-x="841" d="M27 424q16 78 53 127l82 113q47 63 150 141.5t188 112.5t189 23t104 -62q0 -61 -111 -35q-74 16 -135.5 -2.5t-151.5 -79.5t-167.5 -149.5t-113.5 -168.5t-22 -113.5t75.5 -33.5t150 40t135.5 85l108 96q68 61 78 103q14 68 76 94q55 25 65 -17q4 -10 2 -22 q-2 -41 -37 -81t-39 -64.5t4.5 -129t16.5 -119t51 -14.5t44 -22.5t-40 -36.5q-59 -25 -105 26.5t-46 121t-21 71.5q-23 0 -102.5 -65.5t-129.5 -92t-128 -47.5q-123 -31 -185.5 25.5t-37.5 175.5zM371 1438q20 55 133 -4t174 -162q8 -12 24.5 -47t16.5 -50t-33 -55.5 t-53.5 -40.5t-32.5 32t2 58q27 49 -27.5 113t-134.5 76q-41 6 -61 28.5t-8 51.5z" />
<glyph unicode="&#xe1;" horiz-adv-x="897" d="M20 387q0 207 218 451q72 80 108.5 108.5t140.5 79.5q139 72 230 8q37 -27 41 -52.5t-27 -69t-43 -15.5q-2 6 -2 16q0 113 -197 15q-109 -53 -190.5 -136t-155.5 -217q-29 -49 -38 -82.5t-9 -100.5t20.5 -88t94.5 -21q115 2 236.5 114.5t156.5 253.5q36 144 86 171 q23 12 44 -5.5t24.5 -60.5t-7.5 -50t-17 -26q-27 -75 -53 -110.5t-24 -87.5t28.5 -84t48.5 -40t82.5 -11t60.5 -9q-2 -6 -27 -27q-51 -43 -127 -26.5t-113 80.5l-30 51l-80 -74q-76 -70 -136.5 -101.5t-154 -41.5t-141.5 37t-48 151zM534 1214.5q14 34.5 73.5 111.5t73 85 t34.5 -12t12.5 -44t-61.5 -87.5t-53.5 -75.5t-9.5 -26q-26 -43 -54.5 -14.5t-14.5 63z" />
<glyph unicode="&#xe2;" horiz-adv-x="972" d="M31 317q-30 103 45 228q33 55 159.5 161.5t196 141.5t106.5 44t123 9t105 -22q37 -43 -27 -58q-33 -6 -121 -10t-168.5 -43t-197.5 -143q-248 -221 -121 -355q25 -29 45.5 -38t52.5 -7q180 2 332 197q39 47 48 72.5t9 81t6.5 80t32 54.5t52 24.5t41 -44.5t-20.5 -143.5 t-11.5 -172t95 -70.5t84 -16t-30.5 -38q-76 -41 -141 4q-33 23 -55 65q-41 86 -62 31q-10 -29 -114.5 -98.5t-157.5 -85.5q-109 -29 -193 12t-112 139zM405.5 1136q12.5 26 63.5 43t115.5 75.5t111.5 109.5t56 53q20 0 35.5 -38t15.5 -93q6 -170 100 -207q63 -25 45 -56.5 t-96 -12.5q-32 0 -65 52t-44 107q-8 55 -23 64.5t-75.5 -45.5t-125 -85t-89.5 -16q-37 23 -24.5 49z" />
<glyph unicode="&#xe4;" horiz-adv-x="962" d="M31 428q12 57 35.5 90t109.5 119q187 185 377 244q104 35 162 -2q23 -16 26.5 -36t-1.5 -92.5t-22.5 -133t-24.5 -77t1 -55.5q35 -86 119 -112q47 -16 76 -45t20.5 -50.5t-34 -23.5t-38 9t-74 35t-97 59.5t-45 37.5t-24.5 -25.5t-100 -102t-144 -104.5t-134.5 -29 t-122.5 38q-106 80 -65 256zM90.5 331.5q-0.5 -57.5 13 -75.5t37 -29.5t66.5 -13.5t91 12.5t112.5 68.5t113 125.5t61.5 107.5t18 92.5t13.5 87t15.5 37.5q17 19 17 36q0 43 -149 -10q-47 -14 -64 -26t-59.5 -35t-145 -126.5t-121.5 -148.5t-19.5 -102.5zM314.5 1169.5 q4.5 11.5 33.5 36.5q66 51 93.5 27.5t-14.5 -79.5t-64.5 -59t-37.5 30t-10.5 44.5zM843 1114q-9 27 8 43.5t43 7t40 -41.5t-2.5 -48t-48 -2t-40.5 41z" />
<glyph unicode="&#xe7;" horiz-adv-x="731" d="M20 305q0 164 86 254q49 49 124 101.5t99.5 60.5t66.5 13q136 16 151 -17q27 -74 -101 -74q-74 0 -136 -28.5t-117.5 -83t-69.5 -80t-23.5 -85t12 -95.5t92 -62.5t137 -27.5t158 15.5t128.5 34.5q68 37 80 18t-35 -52q-80 -55 -218.5 -78t-254.5 4q-72 14 -125.5 69.5 t-53.5 112.5zM83 -185.5q5 31.5 30 44.5l51 24q70 34 35 97q-20 37 -11 59t39 22q43 0 55.5 -73.5t-20.5 -141.5q-14 -29 -31.5 -42t-63.5 -25t-69 -4q-20 8 -15 39.5z" />
<glyph unicode="&#xe8;" horiz-adv-x="757" d="M23 512q4 63 33.5 110.5t125.5 143.5q154 154 328 215q45 14 100.5 7t85.5 -34l41 -36l-28 -54q-45 -84 -223.5 -196.5t-247.5 -98.5l-74 17q-23 4 -34 -4.5t-28.5 -41t-14.5 -83.5t28 -82q49 -59 173 -70.5t229.5 8t129 43t64.5 13.5q16 -6 16 -15q-14 -45 -179 -98 t-245 -39q-164 31 -227.5 97.5t-52.5 197.5zM219 702q-35 -49 27 -47q12 0 45.5 6t120 57.5t146.5 107t48 75.5q-25 41 -145 -22q-186 -94 -242 -177zM334 1322q0 34 8 34t57 -47t133 -67.5t141.5 -28t57.5 -23.5t-57.5 -21.5t-127 0t-107.5 21.5t-71.5 57t-33.5 75z" />
<glyph unicode="&#xe9;" horiz-adv-x="770" d="M21.5 457q-5.5 88 28.5 199.5t71 160.5t104.5 97.5t137 74t157.5 9t105 -63.5q8 -29 -14.5 -74t-77 -91t-191.5 -82t-170 -9t-57 -51q-14 -43 -22.5 -115t8 -115t67.5 -63q119 -49 373 123q102 68 116 49q6 -6 -14.5 -30t-71.5 -61.5t-119.5 -77.5t-141 -60.5t-136 -17.5 t-105.5 56.5t-47.5 141.5zM268 762q43 -8 116 23.5t108 68.5t32.5 44t-53.5 26q-14 4 -69.5 -10.5t-86.5 -30.5q-176 -98 -47 -121zM403 1202q0 20 69 60q104 62 191 95.5t87 -5.5q0 -14 -62.5 -59.5t-134 -84.5t-111 -38t-39.5 32z" />
<glyph unicode="&#xea;" horiz-adv-x="825" d="M24 417.5q-11 55.5 16 124t54.5 102.5t91 86t123.5 88t101 48.5t78.5 21.5t51 6t17.5 -1q20 -6 44 -6t57.5 -40t33.5 -71q0 -61 -100 -139t-209 -102q-186 -39 -226 19t-61 -34q-14 -72 0.5 -111.5t53.5 -63t74.5 -30t138 -6.5t168 17.5t106.5 56.5t55 25 q41 -41 -112 -117q-37 -16 -80 -33.5t-147.5 -17.5t-166 15t-106.5 61t-56 101.5zM236 596q95 -8 161 20.5t146 81.5q102 72 22 101q-55 23 -114.5 7.5t-145.5 -73.5q-199 -131 -69 -137zM258 1055q-73 49 21 69q48 10 94.5 47t70 70t46 51.5t44 -4t48.5 -95.5t71.5 -122 t97 -62t54.5 -38q0 -16 -29 -23q-68 -12 -145.5 39t-90.5 110.5t-32 61.5t-83.5 -49t-99 -63.5t-67.5 8.5z" />
<glyph unicode="&#xeb;" horiz-adv-x="860" d="M26.5 550q14.5 17 27.5 16q32 -3 74 60.5t112.5 121t134 83.5t135.5 26.5t102.5 -28t17 -68.5t-95.5 -123q-162 -165 -356 -169q-25 -2 -31 -15.5t-9 -84t15.5 -100t69.5 -29.5t114.5 31.5t110.5 70.5q125 102 136 102q35 0 -45 -94t-142.5 -132t-126 -51t-85 -12 t-44.5 17q-51 33 -67.5 105.5t-19.5 142t-22.5 91.5t-5 39zM199 569q35 -12 117.5 23t146 86t49.5 74q-23 37 -113 0t-168 -117q-65 -59 -32 -66zM379.5 1085q-36.5 42 36.5 72q46 19 73 -14q12 -14 10.5 -23.5t-26.5 -27.5q-57 -49 -93.5 -7zM705 983q-16 37 34 37 q27 0 37 14q18 33 43 2t21 -71q-6 -63 -61.5 -41t-73.5 59z" />
<glyph unicode="&#xee;" horiz-adv-x="589" d="M31 444.5q29 116.5 65.5 214t57 140.5t21 55.5t14.5 26.5t21 14t19.5 -13.5t6 -46t-62.5 -208t-68.5 -244t13 -105.5t53.5 -39.5t43 16.5t30 25q32 12 32 -18q0 -20 -50 -51t-89 -31t-87 74t-19 190.5zM35.5 1050.5q3.5 20.5 33 25.5t154.5 128t129 123q18 2 30.5 -28.5 t13.5 -94t27 -114t69 -54.5t68.5 -12t-4.5 -28.5t-75 -20.5t-95 45t-50 87q0 85 -74 7q-30 -34 -77.5 -58t-73 -41t-52.5 -1t-23.5 36.5z" />
<glyph unicode="&#xef;" horiz-adv-x="489" d="M20 1081l41 35q57 51 95 33q31 -20 -15 -68q-27 -25 -39 -28.5t-41 10.5zM78.5 428q-23.5 84 5.5 184.5t86 182.5q29 39 53.5 46t34.5 -20q4 -12 -15.5 -58t-46 -115.5t-32.5 -129t-1 -80t33.5 -51.5t62.5 -27t32 -14q0 -16 -31 -39q-51 -39 -104.5 -1t-77 122zM375 1006 q16 0 37.5 26.5t25.5 31.5t12.5 10t11.5 0q7 -12 7 -69t-21.5 -75.5t-60.5 16.5q-61 60 -12 60z" />
<glyph unicode="&#xf3;" horiz-adv-x="595" d="M39 501.5q39 114.5 133 219t94.5 118t17.5 31.5t73.5 12.5t93.5 -30.5q106 -72 122.5 -216t-71.5 -241q-68 -74 -163 -111.5t-178 -29.5t-118 63q-43 70 -4 184.5zM95 425q-9 -56 13.5 -79.5t88.5 -21.5q127 2 227 104q37 35 49 60.5t19 76.5q18 154 -66 197 q-45 23 -64.5 17.5t-78.5 -60.5t-119 -146.5t-69 -147.5zM258 1154q-14 19 23 46t130 65t119.5 44t36.5 -9q8 -17 -90 -82q-102 -69 -153.5 -76t-65.5 12z" />
<glyph unicode="&#xf4;" horiz-adv-x="813" d="M24.5 382.5q-6.5 20.5 1 101.5t39 142.5t119.5 149.5t64 90q-29 -2 -34 25t17.5 34t46.5 27q49 38 181 31q195 -14 196 -250q0 -158 -71.5 -270.5t-179 -171t-211.5 -43.5q-45 4 -68 17.5t-58.5 55t-42 62zM97 429q7 -69 42 -94.5t109 -17.5q106 10 191 92.5t113 190.5 t25 159.5t-36 94.5q-63 84 -62 12q0 -6 1 -26.5t-6 -27.5t-58 -8q-100 -2 -207 -118q-70 -76 -94.5 -132t-17.5 -125zM311 1169q-14 29 3.5 50.5t57 21.5t111.5 64.5t95.5 60.5t24.5 -88t6 -107.5t32 -50.5t90.5 -26.5t61.5 -20.5q0 -8 -12.5 -23t-72 -15.5t-80 7t-50 39 t-29.5 44t-12 45.5t-20.5 34.5t-50.5 -20t-65 -40.5t-48 -11t-42 36z" />
<glyph unicode="&#xf6;" horiz-adv-x="684" d="M26 508q13 119 44 175t107.5 134t115.5 96t113.5 11.5t118.5 -40.5t66.5 -77t28.5 -139.5t-43 -213t-128 -188t-132 -89t-109 -2.5t-106.5 62.5t-69.5 99.5t-6 171zM88 374.5q31 -108.5 145 -126.5q37 -6 58.5 0t62.5 35q82 59 130 163.5t48 210t-21 134.5t-29.5 30.5 t-22 -14.5t-35 -21.5t-37.5 2t-12 23.5q4 25 -28 29t-106.5 -71t-113.5 -151q-70 -135 -39 -243.5zM181.5 1139.5q-4.5 17.5 13.5 37t52 19.5t44 -16t-17.5 -37t-57.5 -21t-34.5 17.5zM566.5 1181.5q18.5 18.5 32 11.5t37.5 -41t28 -52.5t-19 -31.5t-60 41t-18.5 72.5z" />
<glyph unicode="&#xf9;" horiz-adv-x="698" d="M20.5 484q4.5 91 34 177.5t66.5 148.5t55.5 62t22.5 -19t-11 -36q-61 -78 -87.5 -244.5t18.5 -195.5q14 -8 71.5 6t88 34.5t95.5 88.5q129 135 154 270q16 86 41 113q49 53 78 -2q22 -42 -49 -209q-33 -76 -17.5 -163t57.5 -109.5t40 -43t-26 -20.5t-75 44t-58 81t-17 37 t-92 -84t-191.5 -115t-156 28.5t-42 150.5zM257 1298q7 12 13 14.5t16 -4.5q23 -17 58 -67q88 -119 236 -119q80 0 79 -22q0 -21 -65.5 -27t-139 5.5t-108.5 43t-65.5 98t-23.5 78.5z" />
<glyph unicode="&#xfa;" horiz-adv-x="774" d="M49 115q-61 70 13 283q39 115 101 225t71 121t40 5q72 -14 -3 -102t-137 -271t-32 -212q18 -18 74.5 9.5t125.5 94t69 79.5t14 29.5t33 37.5q49 55 75.5 151.5t66.5 145.5t69 38t16.5 -79t-55.5 -139.5t-50.5 -98t1 -88.5t53.5 -91.5t100 1.5q35 18 37 0t-29 -43 q-66 -51 -125 -39t-88 84q-20 49 -23 53t-16 -6q-19 -14 -77 -74q-104 -113 -191.5 -142.5t-132.5 28.5zM455 989q-17 35 8.5 63.5t91.5 80.5q150 115 191 104q8 -2 8 -28t-135.5 -143.5t-163.5 -76.5z" />
<glyph unicode="&#xfb;" horiz-adv-x="735" d="M21 467q-6 88 31.5 246.5t90.5 244.5q18 29 31.5 31t31 -18t0 -63.5t-53 -117t-50 -140.5t-10.5 -172t28 -128q51 -48 208 152q72 86 98.5 134t56 141t57 134t52 32t29 -49t-10 -56t-30.5 -62l-48 -125q-27 -66 -31.5 -150.5t15.5 -131.5q12 -35 64.5 -49.5t89.5 8.5 t44 3.5t-28 -46.5q-70 -55 -152.5 -24.5t-99.5 120.5q-10 57 -16 70q-9 9 -105 -83t-144 -109t-99 38q-25 27 -34 54.5t-15 115.5zM259 1191q9 15 73 54q77 52 102.5 93t48.5 54t40.5 7t21.5 -33q20 -166 77.5 -241t57.5 -91q0 -41 -77 28t-90 124t-26.5 55t-79 -47t-91 -53 t-46 14.5t-11.5 35.5z" />
<glyph unicode="&#xfc;" horiz-adv-x="643" d="M20 429q0 54 20 136q57 224 126 158q34 -37 -25 -121q-39 -59 -39 -140t23 -95q55 -35 145 45t131 200q29 80 49.5 100.5t49.5 -1.5q40 -24 4 -111q-41 -99 -41 -127.5t30.5 -79.5t50 -51t45 -21.5t31.5 -27.5q8 -10 -13 -18.5t-82.5 14t-62.5 34t-34 52.5l-33 43 l-37 -33q-74 -66 -108.5 -84t-81.5 -18t-65.5 8t-50.5 46t-32 92zM174 1100q6 22 27.5 22t59.5 42t48 14q6 -18 -15.5 -62.5t-29.5 -71.5t-37.5 -24.5t-44 30.5t-8.5 50zM432 1051.5q0 52.5 10 62.5q31 29 58 -55q2 -8 12 -42t1 -52.5t-37.5 -7t-36 26.5t-7.5 67.5z" />
<glyph unicode="&#x2000;" horiz-adv-x="820" />
<glyph unicode="&#x2001;" horiz-adv-x="1641" />
<glyph unicode="&#x2002;" horiz-adv-x="820" />
<glyph unicode="&#x2003;" horiz-adv-x="1641" />
<glyph unicode="&#x2004;" horiz-adv-x="547" />
<glyph unicode="&#x2005;" horiz-adv-x="410" />
<glyph unicode="&#x2006;" horiz-adv-x="273" />
<glyph unicode="&#x2007;" horiz-adv-x="273" />
<glyph unicode="&#x2008;" horiz-adv-x="205" />
<glyph unicode="&#x2009;" horiz-adv-x="328" />
<glyph unicode="&#x200a;" horiz-adv-x="91" />
<glyph unicode="&#x2010;" d="M23 570.5q-6 25.5 3 34.5t229 8t271.5 -6t63.5 -23.5t-4 -37.5t-62.5 -23.5t-248.5 -2.5t-228 17q-18 8 -24 33.5z" />
<glyph unicode="&#x2011;" d="M23 570.5q-6 25.5 3 34.5t229 8t271.5 -6t63.5 -23.5t-4 -37.5t-62.5 -23.5t-248.5 -2.5t-228 17q-18 8 -24 33.5z" />
<glyph unicode="&#x2012;" d="M23 570.5q-6 25.5 3 34.5t229 8t271.5 -6t63.5 -23.5t-4 -37.5t-62.5 -23.5t-248.5 -2.5t-228 17q-18 8 -24 33.5z" />
<glyph unicode="&#x2013;" horiz-adv-x="1062" d="M24.5 570.5q-10.5 25.5 5.5 34.5t408 8t483.5 -6t113 -23.5t-7 -37.5t-111.5 -23.5t-443 -2.5t-406 17q-32 8 -42.5 33.5z" />
<glyph unicode="&#x2014;" horiz-adv-x="2085" d="M28.5 570.5q-21.5 25.5 10.5 34.5t816.5 8t968 -6t226 -23.5t-14.5 -37.5t-222.5 -23.5t-885.5 -2.5t-813 17q-64 8 -85.5 33.5z" />
<glyph unicode="&#x201c;" horiz-adv-x="485" d="M27 868q-12 14 0 95t36.5 151.5t24.5 118t13 59.5t34 2t24 -34.5t-18.5 -120t-8.5 -120t-6.5 -68.5t-50 -71.5t-48.5 -11.5zM334 917.5q10 16.5 33 168t34 182.5q19 54 54 12q16 -20 3 -66.5t-16.5 -118t7 -107.5t-14 -83t-51.5 -47t-43 21.5t-6 38z" />
<glyph unicode="&#x201e;" horiz-adv-x="534" d="M20 2q0 29 37 63t50.5 53t25 53.5t20.5 55t16 38.5t11 28t8 19q8 16 21 12q25 -8 18.5 -93.5t-37.5 -134.5q-72 -123 -127 -123q-43 0 -43 29zM297 -53q-33 14 16 82q8 10 30 35.5t63 98.5t55 119t35 19q14 -16 18 -57t-29.5 -114t-93.5 -136.5t-94 -46.5z" />
<glyph unicode="&#x2022;" horiz-adv-x="358" d="M20 731q0 33 45 101t71.5 84t87.5 14t73 -19q19 -13 38 -114q9 -49 -13 -86q-43 -84 -127 -102.5t-136 44.5q-39 45 -39 78z" />
<glyph unicode="&#x202f;" horiz-adv-x="328" />
<glyph unicode="&#x205f;" horiz-adv-x="410" />
<glyph unicode="&#x20ac;" horiz-adv-x="843" d="M22.5 640q-8.5 15 10 35.5t36 29t29.5 10.5q27 5 36 41.5t1 46.5t-57 10t-47 35q3 47 84 57q41 2 62.5 23.5t62.5 82t88 108.5t150 124t140 90q84 31 152 -46t49 -202q-16 -104 -78 -92q-16 2 -20 17.5t-2 68.5q8 123 -37 139.5t-166 -65.5q-63 -43 -146 -129t-83 -111 q0 -14 154.5 -12t190.5 -11t30 -65q-4 -23 -13.5 -26.5t-86 1.5t-171.5 5l-162 2l-14 -43q-16 -47 13.5 -56t185 4t191.5 12t56.5 -20.5t8 -47t-52 -22.5t-228 -16.5t-193.5 -34.5t40 -140.5t45 -147.5q0 -41 82.5 -50t222.5 17q47 8 59 -14.5t-16.5 -50t-148.5 -47 t-166 -9.5t-83.5 58.5t-39 89.5t-40 168t-79.5 147.5t-49.5 35.5z" />
<glyph unicode="&#xe000;" horiz-adv-x="901" d="M0 0v901h901v-901h-901z" />
</font>
</defs>
</svg>
